<svg xmlns="http://www.w3.org/2000/svg" width="47" height="40" viewBox="0 0 47 40">
  <metadata><?xpacket begin="﻿" id="W5M0MpCehiHzreSzNTczkc9d"?>
<x:xmpmeta xmlns:x="adobe:ns:meta/" x:xmptk="Adobe XMP Core 5.6-c140 79.160451, 2017/05/06-01:08:21        ">
   <rdf:RDF xmlns:rdf="http://www.w3.org/1999/02/22-rdf-syntax-ns#">
      <rdf:Description rdf:about=""/>
   </rdf:RDF>
</x:xmpmeta>
                                                                                                    
                                                                                                    
                                                                                                    
                                                                                                    
                                                                                                    
                                                                                                    
                                                                                                    
                                                                                                    
                                                                                                    
                                                                                                    
                                                                                                    
                                                                                                    
                                                                                                    
                                                                                                    
                                                                                                    
                                                                                                    
                                                                                                    
                                                                                                    
                                                                                                    
                                                                                                    
                           
<?xpacket end="w"?></metadata>
<defs>
    <style>
      .cls-1 {
        fill: #5376ff;
        fill-rule: evenodd;
      }
    </style>
  </defs>
  <path id="形状_2310" data-name="形状 2310" class="cls-1" d="M12.932,4.044L6,5.69,9.5,18.784a4.644,4.644,0,0,1,0,2.414L6,34.292l6.915,1.644a1.823,1.823,0,0,0,2-.853l6.5-11.181a7.784,7.784,0,0,0,0-7.823L14.933,4.9a1.824,1.824,0,0,0-1.576-.9,1.789,1.789,0,0,0-.426.05m0,0L6,5.69,9.5,18.784a4.644,4.644,0,0,1,0,2.414L6,34.292l6.915,1.644a1.823,1.823,0,0,0,2-.853l6.5-11.181a7.784,7.784,0,0,0,0-7.823L14.933,4.9a1.824,1.824,0,0,0-1.576-.9,1.789,1.789,0,0,0-.426.05M33.078,4.9l-6.5,11.181a7.778,7.778,0,0,0,0,7.823L33.06,35.082a1.824,1.824,0,0,0,2,.853l6.934-1.644L38.488,21.2a4.671,4.671,0,0,1,0-2.414L41.994,5.69,35.078,4.045a1.832,1.832,0,0,0-2,.853m0,0-6.5,11.181a7.778,7.778,0,0,0,0,7.823L33.06,35.082a1.824,1.824,0,0,0,2,.853l6.934-1.644L38.488,21.2a4.671,4.671,0,0,1,0-2.414L41.994,5.69,35.078,4.045a1.832,1.832,0,0,0-2,.853"/>
</svg>
