<svg id="图层_1" data-name="图层 1" xmlns="http://www.w3.org/2000/svg" xmlns:xlink="http://www.w3.org/1999/xlink" viewBox="0 0 292.08 52.82"><defs><style>.cls-1{fill:#5376ff;}.cls-2{fill:#444553;}.cls-3{fill:none;}.cls-4{clip-path:url(#clip-path);}.cls-5{clip-path:url(#clip-path-2);}</style><clipPath id="clip-path" transform="translate(0 0)"><path class="cls-1" d="M11.3.08,0,2.79,5.71,24.31a7.64,7.64,0,0,1,0,4L0,49.81l11.27,2.7a3,3,0,0,0,3.26-1.4L25.12,32.73a12.87,12.87,0,0,0,0-12.86L14.56,1.49A3,3,0,0,0,12,0a3.25,3.25,0,0,0-.69.08"/></clipPath><clipPath id="clip-path-2" transform="translate(0 0)"><path class="cls-1" d="M44.13,1.49,33.54,19.87a12.9,12.9,0,0,0,0,12.86L44.11,51.11a3,3,0,0,0,3.26,1.41l11.3-2.71L53,28.28a7.85,7.85,0,0,1,0-4L58.67,2.79,47.4.08A3.42,3.42,0,0,0,46.7,0a3,3,0,0,0-2.57,1.49"/></clipPath></defs><title>矢量智能对象</title><polygon class="cls-2" points="85.01 46.8 74.29 46.8 87.23 25.98 75.23 5.54 85.84 5.54 93.17 19 100.95 5.54 111.67 5.54 98.95 25.98 111.56 46.8 100.95 46.8 93.06 32.95 85.01 46.8"/><path class="cls-2" d="M120.06,13.08a5,5,0,0,1-3.72-1.48,5,5,0,0,1-1.5-3.71,5,5,0,0,1,1.5-3.71,5.34,5.34,0,0,1,7.38,0,5,5,0,0,1,1.5,3.71,5.09,5.09,0,0,1-5.16,5.19m4.27,33.72h-8.72V16.21h8.72Z" transform="translate(0 0)"/><path class="cls-2" d="M153.77,19.44V16.21H162V46.8h-8.22V43.67a12.74,12.74,0,0,1-9.39,3.91,14,14,0,0,1-10.77-4.64,16.57,16.57,0,0,1-4.22-11.61A16,16,0,0,1,133.66,20a14,14,0,0,1,10.72-4.53,12.58,12.58,0,0,1,9.39,4m-15.66,12a8.36,8.36,0,0,0,2.16,5.8,7.53,7.53,0,0,0,5.61,2.34,7.28,7.28,0,0,0,5.61-2.4,8.16,8.16,0,0,0,2.28-5.74,8,8,0,0,0-2.28-5.7,7.89,7.89,0,0,0-11.22,0,8.1,8.1,0,0,0-2.16,5.7" transform="translate(0 0)"/><path class="cls-2" d="M183.6,47.63A16,16,0,0,1,171.77,43a15.74,15.74,0,0,1-4.56-11.5,15.54,15.54,0,0,1,4.56-11.44,17.33,17.33,0,0,1,23.71,0A15.56,15.56,0,0,1,200.1,31.5a15.82,15.82,0,0,1-16.5,16.13m7.77-16.18a7.62,7.62,0,0,0-2.27-5.59,7.63,7.63,0,0,0-11,0,7.61,7.61,0,0,0-2.22,5.59,7.91,7.91,0,0,0,2.22,5.74,7.75,7.75,0,0,0,11,0,8,8,0,0,0,2.27-5.74" transform="translate(0 0)"/><polygon class="cls-2" points="215.37 46.8 206.2 46.8 206.2 5.54 215.37 5.54 215.37 21.68 231.37 21.68 231.37 5.54 240.59 5.54 240.59 46.8 231.37 46.8 231.37 30.55 215.37 30.55 215.37 46.8"/><path class="cls-2" d="M261.75,47.58c-4.44,0-7.94-1.23-10.47-3.69s-3.81-5.86-3.81-10.21V16.21h8.72V33.73A5.93,5.93,0,0,0,257.67,38a6.12,6.12,0,0,0,8.16,0,6,6,0,0,0,1.47-4.25V16.21H276V33.68q0,6.65-3.77,10.27t-10.5,3.63" transform="translate(0 0)"/><path class="cls-2" d="M286.91,13.08a5.07,5.07,0,0,1-3.72-1.48,5,5,0,0,1-1.5-3.71,5,5,0,0,1,1.5-3.71,5.35,5.35,0,0,1,7.39,0,5,5,0,0,1,1.5,3.71,5.09,5.09,0,0,1-5.17,5.19m4.28,33.72h-8.73V16.21h8.73Z" transform="translate(0 0)"/><rect class="cls-3" width="292.08" height="52.6"/><path class="cls-1" d="M11.3.08,0,2.79,5.71,24.31a7.64,7.64,0,0,1,0,4L0,49.81l11.27,2.7a3,3,0,0,0,3.26-1.4L25.12,32.73a12.87,12.87,0,0,0,0-12.86L14.56,1.49A3,3,0,0,0,12,0a3.25,3.25,0,0,0-.69.08" transform="translate(0 0)"/><g class="cls-4"><rect class="cls-1" width="27.42" height="52.82"/></g><path class="cls-1" d="M44.13,1.49,33.54,19.87a12.9,12.9,0,0,0,0,12.86L44.11,51.11a3,3,0,0,0,3.26,1.41l11.3-2.71L53,28.28a7.85,7.85,0,0,1,0-4L58.67,2.79,47.4.08A3.42,3.42,0,0,0,46.7,0a3,3,0,0,0-2.57,1.49" transform="translate(0 0)"/><g class="cls-5"><rect class="cls-1" x="31.25" width="27.42" height="52.82"/></g></svg>