<svg xmlns="http://www.w3.org/2000/svg" width="90" height="90" viewBox="0 0 90 90">
  <metadata><?xpacket begin="﻿" id="W5M0MpCehiHzreSzNTczkc9d"?>
<x:xmpmeta xmlns:x="adobe:ns:meta/" x:xmptk="Adobe XMP Core 5.6-c140 79.160451, 2017/05/06-01:08:21        ">
   <rdf:RDF xmlns:rdf="http://www.w3.org/1999/02/22-rdf-syntax-ns#">
      <rdf:Description rdf:about=""/>
   </rdf:RDF>
</x:xmpmeta>
                                                                                                    
                                                                                                    
                                                                                                    
                                                                                                    
                                                                                                    
                                                                                                    
                                                                                                    
                                                                                                    
                                                                                                    
                                                                                                    
                                                                                                    
                                                                                                    
                                                                                                    
                                                                                                    
                                                                                                    
                                                                                                    
                                                                                                    
                                                                                                    
                                                                                                    
                                                                                                    
                           
<?xpacket end="w"?></metadata>
<defs>
    <style>
      .cls-1 {
        fill: #fff;
        fill-rule: evenodd;
      }
    </style>
  </defs>
  <path id="广告" class="cls-1" d="M44.974,77.994h-27.7c-0.722,0-.722,0-0.722-0.74V75.045c0-.47,0-0.471.457-0.471H29.562c1.98,0,3.958-.006,5.938.007a0.323,0.323,0,0,0,.4-0.4q-0.014-8.711,0-17.422a0.352,0.352,0,0,0-.435-0.437q-10.808.013-21.618,0.005a1.7,1.7,0,0,1-1.778-1.239A1.728,1.728,0,0,1,12,54.566q0-17.048,0-34.1a1.705,1.705,0,0,1,1.778-1.763c2.679,0,5.358-.007,8.037.006,0.345,0,.451-0.1.433-0.441-0.027-.5-0.024-1,0-1.495,0.013-.295-0.1-0.365-0.37-0.357-0.521.018-1.043-.006-1.564,0.01a0.279,0.279,0,0,1-.353-0.338c0.015-.926.011-1.852,0-2.779a0.254,0.254,0,0,1,.3-0.313q3.68,0.009,7.361,0a0.253,0.253,0,0,1,.309.306q-0.014,1.407,0,2.814a0.252,0.252,0,0,1-.308.308c-0.546-.012-1.092.009-1.636-0.009a0.277,0.277,0,0,0-.341.349c0.017,0.511.027,1.023,0,1.532-0.02.343,0.11,0.412,0.424,0.411Q32.385,18.7,38.7,18.705H63.623c0.722,0,.722,0,0.722-0.741,0-.392-0.015-0.784,0-1.175a0.289,0.289,0,0,0-.357-0.369c-0.545.022-1.091,0-1.636,0.008a0.239,0.239,0,0,1-.291-0.288q0.012-1.425,0-2.85A0.24,0.24,0,0,1,62.355,13q3.7,0.008,7.4,0a0.239,0.239,0,0,1,.286.292q-0.011,1.426,0,2.851a0.239,0.239,0,0,1-.3.284c-0.521-.009-1.043.018-1.564-0.011-0.354-.02-0.447.111-0.427,0.445a12.017,12.017,0,0,1,0,1.388c-0.023.353,0.074,0.465,0.447,0.463,2.667-.017,5.334-0.011,8-0.008a1.7,1.7,0,0,1,1.733,1.252,1.763,1.763,0,0,1,.063.526q0,17.031,0,34.061a1.707,1.707,0,0,1-1.827,1.785q-11.291,0-22.58,0a1.268,1.268,0,0,0-.387.012,0.451,0.451,0,0,0-.229.225,0.688,0.688,0,0,0-.009.281V74.093c0,0.48,0,.48.483,0.48H72.935c0.512,0,.513,0,0.513.522,0,0.832-.017,1.664.008,2.494,0.01,0.343-.112.41-0.426,0.409q-11.13-.011-22.26-0.005h-5.8ZM45,22.126H15.916c-0.5,0-.5,0-0.5.5V52.41c0,0.5,0,.5.5,0.5H74.121c0.464,0,.465,0,0.465-0.463V22.627c0-.5,0-0.5-0.5-0.5H45ZM42.725,65.488c0-2.921-.005-5.842.006-8.762,0-.311-0.08-0.41-0.4-0.4-0.9.021-1.8,0.014-2.7,0a0.266,0.266,0,0,0-.325.328c0.012,0.747,0,1.5,0,2.244q0,7.623-.007,15.245c0,0.34.089,0.449,0.434,0.439q1.279-.036,2.56,0c0.343,0.009.437-.1,0.436-0.437C42.719,71.259,42.725,68.373,42.725,65.488Zm3.414-.072c0,2.92,0,5.841-.007,8.761,0,0.312.081,0.41,0.4,0.4,0.9-.021,1.8-0.016,2.7,0a0.266,0.266,0,0,0,.323-0.328q-0.008-8.8,0-17.6a0.267,0.267,0,0,0-.324-0.328c-0.889.012-1.778,0.02-2.666,0-0.344-.008-0.437.1-0.435,0.438C46.143,59.646,46.138,62.531,46.139,65.416ZM41.081,38.637c0.513-.907,1-1.77,1.49-2.634q2-3.545,3.994-7.089a1.737,1.737,0,0,1,3.112-.044q5.078,8.37,10.149,16.744a1.734,1.734,0,0,1-1.548,2.741q-13.81-.01-27.621-0.005a1.713,1.713,0,0,1-1.809-1.34,1.691,1.691,0,0,1,.242-1.327Q31.6,41.225,34.12,36.77c0.413-.733.829-1.464,1.234-2.2a1.73,1.73,0,0,1,1.658-1.018,1.94,1.94,0,0,1,1.6,1.14c0.75,1.276,1.525,2.537,2.294,3.8A0.832,0.832,0,0,0,41.081,38.637Zm7.092-5.615L41.488,44.888h13.9ZM36.961,38.686l-3.484,6.186a0.9,0.9,0,0,0,.166.05c1.23,0,2.461.012,3.691-.007a0.548,0.548,0,0,0,.358-0.27c0.425-.723.822-1.465,1.243-2.191a0.54,0.54,0,0,0-.009-0.624c-0.586-.946-1.158-1.9-1.736-2.849C37.137,38.9,37.067,38.822,36.961,38.686Z" transform="translate(0 -0.5)"/>
</svg>
