<?xml version="1.0" encoding="UTF-8"?>
<svg width="640px" height="640px" viewBox="0 0 640 640" version="1.1" xmlns="http://www.w3.org/2000/svg" xmlns:xlink="http://www.w3.org/1999/xlink">
    <!-- Generator: Sketch 60 (88103) - https://sketch.com -->
    <title>icon_poster</title>
    <desc>Created with Sketch.</desc>
    <defs>
        <polygon id="path-1" points="0.0002 0.669 547.242 0.669 547.242 569.9999 0.0002 569.9999"></polygon>
    </defs>
    <g id="icon_poster" stroke="none" stroke-width="1" fill="none" fill-rule="evenodd">
        <g id="编组" transform="translate(45.000000, 51.000000)">
            <g transform="translate(0.000000, 0.331000)">
                <mask id="mask-2" fill="white">
                    <use xlink:href="#path-1"></use>
                </mask>
                <g id="Clip-2"></g>
                <path d="M527.2422,339.5889 C527.2422,363.1739 508.0552,382.3609 484.4702,382.3609 L62.7732,382.3609 C39.1882,382.3609 20.0002,363.1739 20.0002,339.5889 L20.0002,88.2669 C20.0002,68.9369 35.7252,53.2109 55.0552,53.2109 L114.8052,53.2109 L114.8052,55.5969 C114.8052,74.5599 130.2322,89.9859 149.1942,89.9859 L189.6942,89.9859 C208.6562,89.9859 224.0832,74.5599 224.0832,55.5969 L224.0832,53.2109 L336.9302,53.2109 L336.9302,55.5969 C336.9302,74.5599 352.3572,89.9859 371.3202,89.9859 L411.8192,89.9859 C430.7812,89.9859 446.2082,74.5599 446.2082,55.5969 L446.2082,53.2109 L492.1862,53.2109 C511.5162,53.2109 527.2422,68.9369 527.2422,88.2669 L527.2422,339.5889 Z M179.4442,476.1009 L380.8572,476.1009 L380.8572,402.3619 L179.4442,402.3619 L179.4442,476.1009 Z M472.3872,496.1009 C487.2462,496.1009 499.3362,508.1909 499.3362,523.0509 C499.3362,537.9099 487.2462,549.9999 472.3872,549.9999 L79.9172,549.9999 C65.0562,549.9999 52.9682,537.9099 52.9682,523.0509 C52.9682,508.1909 65.0562,496.1009 79.9172,496.1009 L159.4442,496.1009 L179.4442,496.1009 L380.8572,496.1009 L400.8572,496.1009 L472.3872,496.1009 Z M149.1942,20.6689 L189.6942,20.6689 C197.0012,20.6689 203.0402,26.1489 203.9502,33.2109 C204.0292,33.8179 204.0832,34.4309 204.0832,35.0579 L204.0832,53.2109 L204.0832,55.5969 C204.0832,63.5309 197.6282,69.9859 189.6942,69.9859 L149.1942,69.9859 C141.2612,69.9859 134.8052,63.5309 134.8052,55.5969 L134.8052,53.2109 L134.8052,35.0579 C134.8052,34.4309 134.8592,33.8179 134.9382,33.2109 C135.8482,26.1489 141.8882,20.6689 149.1942,20.6689 L149.1942,20.6689 Z M371.3202,20.6689 L411.8192,20.6689 C419.1262,20.6689 425.1652,26.1489 426.0752,33.2109 C426.1542,33.8179 426.2082,34.4309 426.2082,35.0579 L426.2082,53.2109 L426.2082,55.5969 C426.2082,63.5309 419.7532,69.9859 411.8192,69.9859 L371.3202,69.9859 C363.3862,69.9859 356.9302,63.5309 356.9302,55.5969 L356.9302,53.2109 L356.9302,35.0579 C356.9302,34.4309 356.9842,33.8179 357.0632,33.2109 C357.9732,26.1489 364.0132,20.6689 371.3202,20.6689 L371.3202,20.6689 Z M492.1862,33.2109 L446.1572,33.2109 C445.1942,15.1049 430.1612,0.6689 411.8192,0.6689 L371.3202,0.6689 C352.9772,0.6689 337.9442,15.1049 336.9812,33.2109 L224.0322,33.2109 C223.0692,15.1049 208.0362,0.6689 189.6942,0.6689 L149.1942,0.6689 C130.8522,0.6689 115.8192,15.1049 114.8562,33.2109 L55.0552,33.2109 C24.6982,33.2109 0.0002,57.9089 0.0002,88.2669 L0.0002,339.5889 C0.0002,374.2019 28.1602,402.3609 62.7732,402.3609 L159.4442,402.3609 L159.4442,476.1009 L79.9172,476.1009 C54.0292,476.1009 32.9682,497.1619 32.9682,523.0509 C32.9682,548.9389 54.0292,569.9999 79.9172,569.9999 L472.3872,569.9999 C498.2742,569.9999 519.3362,548.9389 519.3362,523.0509 C519.3362,497.1619 498.2742,476.1009 472.3872,476.1009 L400.8572,476.1009 L400.8572,402.3609 L484.4702,402.3609 C519.0832,402.3609 547.2422,374.2019 547.2422,339.5889 L547.2422,88.2669 C547.2422,57.9089 522.5442,33.2109 492.1862,33.2109 L492.1862,33.2109 Z" id="Fill-1" fill="#595D64" mask="url(#mask-2)"></path>
            </g>
            <path d="M247.7256,257.5751 L189.2436,316.0581 C183.9546,321.3471 176.9236,324.2601 169.4446,324.2601 C161.9646,324.2601 154.9336,321.3471 149.6456,316.0581 L91.1636,257.5751 C80.2466,246.6581 80.2466,228.8941 91.1636,217.9771 L149.6456,159.4951 C154.9336,154.2061 161.9646,151.2941 169.4446,151.2941 C176.9236,151.2941 183.9546,154.2061 189.2436,159.4951 L247.7256,217.9771 C258.6426,228.8941 258.6426,246.6581 247.7256,257.5751 L247.7256,257.5751 Z M203.3856,145.3521 C184.6706,126.6381 154.2176,126.6381 135.5026,145.3521 L77.0206,203.8351 C58.3056,222.5511 58.3056,253.0031 77.0206,271.7181 L135.5026,330.2011 C144.8606,339.5581 157.1526,344.2371 169.4446,344.2371 C181.7366,344.2371 194.0286,339.5581 203.3856,330.2011 L261.8686,271.7181 C280.5826,253.0031 280.5826,222.5511 261.8686,203.8351 L203.3856,145.3521 Z" id="Fill-3" fill="#595D64"></path>
            <path d="M448.1924,181.0517 L333.5224,181.0517 C328.0004,181.0517 323.5224,185.5297 323.5224,191.0517 C323.5224,196.5737 328.0004,201.0517 333.5224,201.0517 L448.1924,201.0517 C453.7144,201.0517 458.1924,196.5737 458.1924,191.0517 C458.1924,185.5297 453.7144,181.0517 448.1924,181.0517" id="Fill-5" fill="#595D64"></path>
            <path d="M448.1924,271.7314 L333.5224,271.7314 C328.0004,271.7314 323.5224,276.2094 323.5224,281.7314 C323.5224,287.2534 328.0004,291.7314 333.5224,291.7314 L448.1924,291.7314 C453.7144,291.7314 458.1924,287.2534 458.1924,281.7314 C458.1924,276.2094 453.7144,271.7314 448.1924,271.7314" id="Fill-7" fill="#595D64"></path>
        </g>
    </g>
</svg>