<?xml version="1.0" encoding="UTF-8"?>
<svg width="640px" height="640px" viewBox="0 0 640 640" version="1.1" xmlns="http://www.w3.org/2000/svg" xmlns:xlink="http://www.w3.org/1999/xlink">
    <!-- Generator: Sketch 60 (88103) - https://sketch.com -->
    <title>icon_brand_hover</title>
    <desc>Created with Sketch.</desc>
    <defs>
        <polygon id="path-1" points="0 0 596.4946 0 596.4946 611.787 0 611.787"></polygon>
    </defs>
    <g id="icon_brand_hover" stroke="none" stroke-width="1" fill="none" fill-rule="evenodd" opacity="0.900000036">
        <g id="编组" transform="translate(21.000000, 10.000000)">
            <mask id="mask-2" fill="white">
                <use xlink:href="#path-1"></use>
            </mask>
            <g id="Clip-2"></g>
            <path d="M576.4946,549.2684 C576.4946,572.7124 557.4216,591.7874 533.9766,591.7874 L118.2456,591.7874 C94.8016,591.7874 75.7276,572.7124 75.7276,549.2684 L75.7276,406.2824 L304.8486,406.2824 C322.0866,406.2824 336.1116,392.2574 336.1116,375.0194 L336.1116,242.5174 C336.1116,225.2794 322.0866,211.2544 304.8486,211.2544 L75.7276,211.2544 L75.7276,160.9894 C75.7276,137.5444 94.8016,118.4704 118.2456,118.4704 L419.2916,118.4704 L419.2916,446.9564 L419.7416,446.9564 L460.5156,519.5704 L351.1116,519.5704 C345.5886,519.5704 341.1116,524.0474 341.1116,529.5704 C341.1116,535.0924 345.5886,539.5704 351.1116,539.5704 L465.7816,539.5704 C467.6696,539.5704 469.4286,539.0374 470.9356,538.1274 L471.4436,539.0324 L472.7166,536.7644 C474.1056,535.4244 475.1066,533.6904 475.5386,531.7394 L523.1446,446.9564 L523.5956,446.9564 L523.5956,118.4704 L533.9766,118.4704 C557.4216,118.4704 576.4946,137.5444 576.4946,160.9894 L576.4946,549.2684 Z M31.2636,386.2824 C25.0526,386.2824 19.9996,381.2294 19.9996,375.0194 L19.9996,294.6794 L55.7276,294.4484 L75.7276,294.3194 L316.1116,292.7614 L316.1116,375.0194 C316.1116,381.2294 311.0586,386.2824 304.8486,386.2824 L75.7276,386.2824 L55.7276,386.2824 L31.2636,386.2824 Z M19.9996,242.5174 C19.9996,236.3074 25.0526,231.2544 31.2636,231.2544 L55.7276,231.2544 L75.7276,231.2544 L304.8486,231.2544 C311.0586,231.2544 316.1116,236.3074 316.1116,242.5174 L316.1116,272.7604 L75.7276,274.3174 L55.7276,274.4474 L19.9996,274.6784 L19.9996,242.5174 Z M471.4436,498.1824 L442.6796,446.9564 L500.2076,446.9564 L471.4436,498.1824 Z M439.2916,52.1514 C439.2916,34.4224 453.7146,19.9994 471.4436,19.9994 C489.1716,19.9994 503.5956,34.4224 503.5956,52.1514 L503.5956,98.4704 L503.5956,118.4704 L503.5956,426.9564 L439.2916,426.9564 L439.2916,118.4704 L439.2916,98.4704 L439.2916,52.1514 Z M533.9766,98.4704 L523.5956,98.4704 L523.5956,52.1514 C523.5956,23.3944 500.2006,-0.0006 471.4436,-0.0006 C442.6866,-0.0006 419.2916,23.3944 419.2916,52.1514 L419.2916,98.4704 L118.2456,98.4704 C83.7736,98.4704 55.7276,126.5164 55.7276,160.9894 L55.7276,211.2544 L31.2636,211.2544 C14.0246,211.2544 -0.0004,225.2794 -0.0004,242.5174 L-0.0004,375.0194 C-0.0004,392.2574 14.0246,406.2824 31.2636,406.2824 L55.7276,406.2824 L55.7276,549.2684 C55.7276,583.7414 83.7736,611.7874 118.2456,611.7874 L533.9766,611.7874 C568.4496,611.7874 596.4946,583.7414 596.4946,549.2684 L596.4946,160.9894 C596.4946,126.5164 568.4496,98.4704 533.9766,98.4704 L533.9766,98.4704 Z" id="Fill-1" fill="#FFFFFF" mask="url(#mask-2)"></path>
        </g>
    </g>
</svg>