<svg xmlns="http://www.w3.org/2000/svg" width="90" height="90" viewBox="0 0 90 90">
  <metadata><?xpacket begin="﻿" id="W5M0MpCehiHzreSzNTczkc9d"?>
<x:xmpmeta xmlns:x="adobe:ns:meta/" x:xmptk="Adobe XMP Core 5.6-c140 79.160451, 2017/05/06-01:08:21        ">
   <rdf:RDF xmlns:rdf="http://www.w3.org/1999/02/22-rdf-syntax-ns#">
      <rdf:Description rdf:about=""/>
   </rdf:RDF>
</x:xmpmeta>
                                                                                                    
                                                                                                    
                                                                                                    
                                                                                                    
                                                                                                    
                                                                                                    
                                                                                                    
                                                                                                    
                                                                                                    
                                                                                                    
                                                                                                    
                                                                                                    
                                                                                                    
                                                                                                    
                                                                                                    
                                                                                                    
                                                                                                    
                                                                                                    
                                                                                                    
                                                                                                    
                           
<?xpacket end="w"?></metadata>
<defs>
    <style>
      .cls-1 {
        fill: #fffff7;
        fill-rule: evenodd;
      }
    </style>
  </defs>
  <path id="品牌" class="cls-1" d="M58.681,43.47L71.526,30.629a1.39,1.39,0,0,0,.395-0.854,1.377,1.377,0,0,0,.846-0.394A8.607,8.607,0,1,0,60.593,17.21a1.379,1.379,0,0,0-.4.864,1.364,1.364,0,0,0-.848.379L46.506,31.3,28.592,13.385a1.432,1.432,0,0,0-1.968,0L13.386,26.627a1.391,1.391,0,0,0,0,1.968L31.3,46.507,19.685,58.117a1.378,1.378,0,0,0-.321.5l-4.29,11.643c-0.87,2.354-.082,3.624.465,4.17a3.043,3.043,0,0,0,2.225.854,5.613,5.613,0,0,0,1.944-.388l11.617-4.279a1.379,1.379,0,0,0,.528-0.33h0L43.469,58.678,61.381,76.588a1.392,1.392,0,0,0,1.968,0l13.24-13.242a1.391,1.391,0,0,0,0-1.968Zm8-26A5.825,5.825,0,0,1,70.8,27.414a1.352,1.352,0,0,0-.221.3L62.263,19.4a1.38,1.38,0,0,0,.3-0.221A5.784,5.784,0,0,1,66.68,17.471ZM30.149,41.421L33.73,37.84a1.392,1.392,0,1,0-1.969-1.968l-3.58,3.581-4.824-4.824,3.579-3.578a1.391,1.391,0,0,0-1.968-1.968l-3.579,3.578-5.05-5.05,11.27-11.274,16.93,16.929L33.265,44.538ZM30.87,67.337l-4.579-4.579a1.391,1.391,0,1,0-1.968,1.968l4.025,4.025-9.6,3.538a2.018,2.018,0,0,1-1.23.184,1.867,1.867,0,0,1,.171-1.247h0L21.87,59.869,34.223,47.516c0.009-.008.02-0.015,0.029-0.023s0.015-.02.023-0.029L47.433,34.306c0.02-.018.043-0.031,0.063-0.051s0.033-.042.052-0.063L60.333,21.406l8.239,8.239L42.533,55.678c-0.017.015-.036,0.027-0.053,0.043s-0.028.035-.043,0.052Zm31.494,6.3-5.054-5.053L60.891,65a1.391,1.391,0,0,0-1.968-1.968l-3.581,3.58L50.52,61.792,54.1,58.211a1.391,1.391,0,0,0-1.968-1.968l-3.581,3.581L45.437,56.71,56.712,45.438,73.636,62.361Z"/>
</svg>
