<?xml version="1.0" encoding="UTF-8"?>
<svg width="194px" height="18px" viewBox="0 0 194 18" version="1.1" xmlns="http://www.w3.org/2000/svg" xmlns:xlink="http://www.w3.org/1999/xlink">
    <!-- Generator: Sketch 63.1 (92452) - https://sketch.com -->
    <title>画板备份</title>
    <desc>Created with Sketch.</desc>
    <g id="画板备份" stroke="none" stroke-width="1" fill="none" fill-rule="evenodd">
        <g id="logo_uxd" fill="#FFFFFF" fill-rule="nonzero">
            <path d="M16.1,16.3 L1.7,16.3 L1.7,0.45 L0,0.45 L0,18 L17.7,18 L17.7,0.45 L16.1,0.45 L16.1,16.3 Z M23.7,16.7 L24.8,17.91 L32.7,10.53 L40.6,17.91 L41.7,16.66 L32.7,8.22 L23.7,16.7 Z M54.9,-2.27373675e-13 L46.9,-2.27373675e-13 L46.9,1.65 L54.9,1.65 C56.8625705,1.59019309 58.7620426,2.34704642 60.1456871,3.74016794 C61.5293316,5.13328945 62.2732017,7.0378835 62.2,9 C62.2090365,10.9434384 61.4444332,12.810609 60.074898,14.1895246 C58.7053628,15.5684401 56.8434549,16.3457707 54.9,16.35 L46.9,16.35 L46.9,18 L54.9,18 C59.8705627,18 63.9,13.9705627 63.9,9 C63.9,4.02943725 59.8705627,-2.27373675e-13 54.9,-2.27373675e-13 L54.9,-2.27373675e-13 Z M37,4.2 L40.5,0.62 L41.8,1.83 L38.2,5.37 L37,4.2 Z M29.2,4.21 L25.6,0.64 L24.4,1.85 L28,5.38 L29.2,4.21 Z" id="形状_1"></path>
        </g>
        <rect id="矩形" fill="#FFFFFF" x="78" y="0" width="2" height="18"></rect>
        <g id="Xiaohui@2x备份" transform="translate(94.000000, 0.000000)">
            <polygon id="路径" fill="#FFFFFF" fill-rule="nonzero" points="28.7281969 16 25 16 29.5002675 8.93553078 25.3269128 2 29.0168539 2 31.5660781 6.56713524 34.2718031 2 38 2 33.576244 8.93553078 37.9617442 16 34.2718031 16 31.5278224 11.3005332"></polygon>
            <path d="M40.5086674,4.53061561 C40.1064989,4.54636837 39.7169753,4.36392022 39.4339146,4.0272144 C39.146545,3.69594503 38.9894916,3.23862865 39.0005466,2.76531001 C38.9894916,2.29199137 39.146545,1.83467499 39.4339146,1.50340562 C40.0303033,0.832198127 40.9696967,0.832198127 41.5660854,1.50340562 C41.853455,1.83467499 42.0105084,2.29199137 41.9994534,2.76531001 C42.0073234,3.23450092 41.8530731,3.68735358 41.572032,4.02014677 C41.2909909,4.35293996 40.9072378,4.53716087 40.5086674,4.53061561 M41.7423217,16 L39.2230089,16 L39.2230089,5.59524115 L41.7423217,5.59524115 L41.7423217,16 Z" id="形状" fill="#FFFFFF" fill-rule="nonzero"></path>
            <path d="M52.2237914,7.36157043 L52.2237914,6.25541754 L55,6.25541754 L55,16.7313361 L52.2271646,16.7313361 L52.2271646,15.6594294 C51.4002391,16.532874 50.2528191,17.0179323 49.0596556,16.9984566 C47.6779538,17.0340259 46.3502532,16.4533112 45.4266341,15.409432 C44.4650549,14.3199284 43.9550703,12.8955113 44.0031103,11.4334459 C43.9631433,9.99893878 44.479113,8.60576614 45.4401272,7.55334926 C46.3666622,6.52800531 47.6862644,5.96188752 49.0562823,6.00199552 C50.2553419,5.9837357 51.4060337,6.481374 52.2237914,7.3718443 M46.9412364,11.4813906 C46.9248695,12.2137364 47.1856334,12.9245929 47.6698647,13.4676714 C48.1617284,13.9928856 48.8485791,14.28374 49.5622742,14.2690329 C50.281194,14.2896103 50.9728646,13.9892047 51.4546837,13.4471236 C51.9548422,12.9194912 52.2310159,12.2136295 52.2237914,11.4813906 C52.2333271,10.7527665 51.9565547,10.0503041 51.4546837,9.52935613 C50.9547287,9.01611692 50.2732807,8.72730029 49.5622742,8.72730029 C48.8512676,8.72730029 48.1698196,9.01611692 47.6698647,9.52935613 C47.1858953,10.0588969 46.9244897,10.7592169 46.9412364,11.4813906" id="形状" fill="#FFFFFF" fill-rule="nonzero"></path>
            <path d="M62.4819002,16.9949615 C61.006352,17.0479108 59.5749477,16.4768156 58.5266507,15.416914 C57.5149818,14.3772779 56.9641839,12.9612389 57.0020575,11.4973575 C56.9618147,10.0390787 57.5133865,8.62844859 58.5266507,7.59825098 C60.7556202,5.46724967 64.2248972,5.46724967 66.4538667,7.59825098 C67.4738093,8.62544427 68.032689,10.0362017 67.9985204,11.4973575 C68.0285192,12.9867174 67.4527459,14.4223673 66.4077967,15.4637144 C65.3628475,16.5050616 63.9418425,17.0593069 62.4819002,16.9949615 M65.0797268,11.480316 C65.0946544,10.7658366 64.8201206,10.0766582 64.3207736,9.57507074 C63.8398105,9.0651506 63.1758276,8.77697204 62.4819002,8.77697204 C61.7879727,8.77697204 61.1239898,9.0651506 60.6430268,9.57507074 C60.1494719,10.0793091 59.8810667,10.7682782 59.9007906,11.480316 C59.8789949,12.207842 60.1466952,12.9134406 60.6430268,13.4366859 C61.1294911,13.9362191 61.7914164,14.2171608 62.4819002,14.2171608 C63.1723839,14.2171608 63.8343093,13.9362191 64.3207736,13.4366859 C64.8202971,12.9143179 65.0936539,12.2096803 65.0797268,11.480316" id="形状" fill="#FFFFFF" fill-rule="nonzero"></path>
            <polygon id="路径" fill="#FFFFFF" fill-rule="nonzero" points="73.9331201 16 71 16 71 2 73.9331201 2 73.9331201 7.47649055 79.0508869 7.47649055 79.0508869 2 82 2 82 16 79.0508869 16 79.0508869 10.4861852 73.9331201 10.4861852"></polygon>
            <path d="M89.0052576,17 C87.4490011,17 86.2222222,16.5686962 85.3354364,15.7060886 C84.4486505,14.843481 84,13.6512592 84,12.1259165 L84,6 L87.0564318,6 L87.0564318,12.1434492 C87.0250182,12.6914819 87.2114926,13.2297087 87.575184,13.6407396 C88.3894698,14.3693607 89.6210454,14.3693607 90.4353312,13.6407396 C90.7937076,13.229591 90.9784462,12.6952613 90.9505783,12.1504622 L90.9505783,6 L94,6 L94,12.1259165 C94,13.6804803 93.559528,14.8808841 92.6785839,15.7271278 C91.7976399,16.5733716 90.5708611,16.9976623 88.9982475,17" id="路径" fill="#FFFFFF" fill-rule="nonzero"></path>
            <path d="M97.5072159,4.53086176 C97.1058628,4.54374552 96.7176465,4.36173851 96.4334972,4.02747135 C96.146404,3.69620909 95.9895017,3.23890252 96.0005461,2.76559404 C95.9895017,2.29228557 96.146404,1.834979 96.4334972,1.50371674 C97.0302827,0.832094421 97.9697173,0.832094421 98.5665028,1.50371674 C98.853596,1.834979 99.0104983,2.29228557 98.9994539,2.76559404 C99.0073381,3.23537389 98.8528444,3.68875233 98.5714414,4.02164259 C98.2900385,4.35453285 97.9058997,4.53833864 97.5072159,4.53086176 M98.7425696,16 L96.2227943,16 L96.2227943,5.59546445 L98.7425696,5.59546445 L98.7425696,16 Z" id="形状" fill="#FFFFFF" fill-rule="nonzero"></path>
            <rect id="矩形" x="0" y="0" width="100" height="18"></rect>
            <path d="M4.02363996,3.55271368e-15 C4.37776208,0.00390186172 4.70378526,0.197610618 4.88201648,0.510009897 L4.88201648,0.510009897 L8.42281965,6.80127292 C9.19239345,8.16339289 9.19239345,9.84098333 8.42281965,11.2031033 L8.42281965,11.2031033 L4.87195738,17.4943663 C4.6490765,17.8804946 4.2066303,18.0744605 3.77886853,17.9735703 L3.77886853,17.9735703 L-2.3625546e-12,17.0493913 L1.91458201,9.69018804 C2.03369318,9.24190219 2.03369318,8.76931981 1.91458201,8.32103396 L1.91458201,8.32103396 L-2.3625546e-12,0.954984975 L3.78892763,0.0273830817 C3.86822071,0.00984435095 3.94578337,0.000664237623 4.02363996,3.55271368e-15 Z" id="形状结合" fill="#FFFFFF" fill-rule="nonzero"></path>
            <path d="M15.9872236,0 C16.0661601,0.000854510289 16.1447991,0.0100293485 16.2218889,0.0273784946 L16.2218889,0.0273784946 L20,0.954824998 L18.0992112,8.3093731 C17.98342,8.7580259 17.98342,9.22964503 18.0992112,9.67829783 L18.0992112,9.67829783 L20,17.0465352 L16.2118318,17.9739817 C15.7833896,18.0742212 15.3408159,17.8788071 15.1189621,17.4914357 L15.1189621,17.4914357 L11.5755163,11.2012266 C10.8081612,9.83877135 10.8081612,8.16258883 11.5755163,6.80013359 L11.5755163,6.80013359 L15.1256668,0.509924461 C15.3044718,0.196534752 15.6319723,0.00269894513 15.9872236,0 Z" id="形状结合" fill="#FFFFFF" fill-rule="nonzero"></path>
        </g>
    </g>
</svg>