<?xml version="1.0" encoding="UTF-8"?>
<svg width="677px" height="57px" viewBox="0 0 677 57" version="1.1" xmlns="http://www.w3.org/2000/svg" xmlns:xlink="http://www.w3.org/1999/xlink">
    <!-- Generator: Sketch 63.1 (92452) - https://sketch.com -->
    <title>编组 8</title>
    <desc>Created with Sketch.</desc>
    <g id="页面-1" stroke="none" stroke-width="1" fill="none" fill-rule="evenodd">
        <g id="编组-8" transform="translate(0.000000, 2.000000)">
            <g id="logo_research" transform="translate(0.000000, 1.000000)" fill="#FFFFFF">
                <path d="M170.889967,18.1981932 L179.678594,18.1981932 C181.730498,18.0669816 183.749302,18.7614846 185.280829,20.1254575 C186.400269,21.3007054 186.994495,22.8758436 186.928545,24.4931202 L186.928545,24.5605745 C187.055834,27.2332723 185.368873,29.6602683 182.809254,30.4869122 L187.502822,37.3046097 L182.559674,37.3046097 L178.440384,31.1879546 L175.118297,31.1879546 L175.118297,37.3046097 L170.889967,37.3046097 L170.889967,18.1981932 Z M179.404782,27.4803799 C180.206053,27.6085249 181.02377,27.3839359 181.645249,26.8650277 C182.266727,26.3461196 182.63054,25.5841817 182.64208,24.7773917 L182.64208,24.7243919 C182.64528,23.8944668 182.274099,23.1068195 181.630627,22.5781311 C180.987155,22.0494427 180.139178,21.8354065 179.319973,21.9949039 L175.118297,21.9949039 L175.118297,27.482789 L179.402359,27.482789 L179.404782,27.4803799 Z M188.489029,30.0773685 L188.489029,30.0219597 C188.39874,28.0430935 189.122602,26.1129504 190.493955,24.6759135 C191.865309,23.2388765 193.765978,22.4187837 195.758364,22.4044475 C200.672435,22.4044475 202.925929,26.2011582 202.925929,30.3544128 C202.925929,30.6820477 202.899275,31.0626824 202.870198,31.4457262 L192.634973,31.4457262 C192.906062,33.1829288 194.466392,34.4268911 196.230871,34.3125319 C197.579433,34.3307914 198.873993,33.7864324 199.800115,32.8116748 L202.189303,34.9148019 C200.098531,37.3619352 196.70396,38.2694654 193.660674,37.1949105 C190.617387,36.1203556 188.558966,33.2874272 188.489029,30.0773685 L188.489029,30.0773685 Z M198.86964,28.8487375 C198.856649,27.1461956 197.477959,25.7658589 195.765634,25.7410239 C194.047398,25.7884851 192.657287,27.1463728 192.579242,28.8535557 L198.879333,28.8535557 L198.86964,28.8487375 Z M203.781288,35.3773454 L205.564698,32.6454482 C206.89681,33.683247 208.515545,34.292535 210.204958,34.3920315 C211.416514,34.3920315 211.961714,33.955988 211.961714,33.3007181 L211.961714,33.2429002 C211.961714,32.3419041 210.534501,32.03836 208.913439,31.5565439 C206.853794,30.9566829 204.520337,30.000278 204.520337,27.1599722 L204.520337,27.0997452 C204.550322,25.7509694 205.151957,24.477537 206.176912,23.593408 C207.201867,22.709279 208.55477,22.2967205 209.902069,22.4574473 C211.857945,22.4839517 213.764855,23.0693542 215.395263,24.1438036 L213.803279,27.0106092 C212.608352,26.2388491 211.241459,25.769865 209.822106,25.6446606 C209.482077,25.559146 209.121548,25.6198456 208.828796,25.811897 C208.536045,26.0039483 208.3381,26.3096192 208.28343,26.6540653 L208.28343,26.7094742 C208.28343,27.5285615 209.683989,27.9140144 211.275973,28.4560574 C213.335618,29.1378272 215.724806,30.1231411 215.724806,32.7924021 L215.724806,32.847811 C215.724806,36.0976604 213.279887,37.5720176 210.095918,37.5720176 C207.804269,37.5581593 205.582513,36.7859801 203.781288,35.3773454 L203.781288,35.3773454 Z M216.904862,30.0773685 L216.904862,30.0219597 C216.814574,28.0430935 217.538435,26.1129504 218.909789,24.6759135 C220.281142,23.2388765 222.181811,22.4187837 224.174198,22.4044475 C229.088269,22.4044475 231.341763,26.2011582 231.341763,30.3544128 C231.341763,30.6820477 231.315108,31.0626824 231.286031,31.4457262 L221.048383,31.4457262 C221.319472,33.1829288 222.879802,34.4268911 224.644281,34.3125319 C225.992843,34.3307914 227.287403,33.7864324 228.213525,32.8116748 L230.602714,34.9148019 C228.511548,37.3600695 225.118156,38.266335 222.076037,37.1920024 C219.033918,36.1176699 216.975927,33.2862339 216.904862,30.0773685 L216.904862,30.0773685 Z M227.285473,28.8487375 C227.272509,27.147118 225.895268,25.7671546 224.18389,25.7410239 C222.465654,25.7884851 221.075544,27.1463728 220.997498,28.8535557 L227.297589,28.8535557 L227.285473,28.8487375 Z M232.470933,33.1079917 L232.470933,33.0525828 C232.470933,29.8581422 234.915853,28.383785 238.402711,28.383785 C239.627426,28.3728558 240.844553,28.5758946 241.998609,28.9836461 L241.998609,28.742738 C242.030367,27.9400462 241.690482,27.1671303 241.076243,26.6452318 C240.462003,26.1233333 239.64112,25.9099825 238.848563,26.0662497 C237.454564,26.0678511 236.073981,26.33697 234.782582,26.8588372 L233.735797,23.6860783 C235.525566,22.869863 237.478497,22.4686878 239.447072,22.5128562 C241.257989,22.377064 243.048324,22.9669168 244.419298,24.1510308 C245.557308,25.4326046 246.130779,27.1144166 246.011282,28.8198286 L246.011282,37.3046097 L241.974378,37.3046097 L241.974378,35.7290711 C240.844215,36.9767917 239.212881,37.6578784 237.525544,37.5864721 C236.242539,37.727179 234.959758,37.3198474 233.996312,36.4658072 C233.032866,35.611767 232.479313,34.3912912 232.473356,33.1079917 L232.470933,33.1079917 Z M242.056764,32.1443595 L242.056764,31.4144082 C241.217045,31.0474671 240.308554,30.8618945 239.39134,30.869956 C238.734581,30.7088053 238.039805,30.8386354 237.486716,31.225866 C236.933628,31.6130966 236.576549,32.2196948 236.507837,32.8887653 L236.507837,32.9441742 C236.542553,33.493215 236.81161,34.0013366 237.247232,34.3405442 C237.682854,34.6797519 238.243515,34.8177097 238.787986,34.7196664 C239.569024,34.8393214 240.364929,34.630574 240.984965,34.1434499 C241.605,33.6563257 241.993284,32.9347287 242.056764,32.1515868 L242.056764,32.1443595 Z M248.507087,22.6694464 L252.682109,22.6694464 L252.682109,25.6181608 C253.288674,23.5794226 255.24312,22.2371891 257.375677,22.3948112 L257.375677,26.7311559 L257.152751,26.7311559 C254.378288,26.7311559 252.677263,28.3958304 252.677263,31.8914061 L252.677263,37.3046097 L248.502241,37.3046097 L248.502241,22.6766736 L248.507087,22.6694464 Z M258.170458,30.0773685 L258.170458,30.0219597 C258.141723,27.983382 258.947436,26.0207077 260.402711,24.5843076 C261.857987,23.1479075 263.83788,22.3611055 265.888069,22.4044475 C268.12382,22.2745933 270.293899,23.1820831 271.764115,24.8617095 L269.210156,27.5911976 C268.397676,26.5766602 267.165798,25.9837847 265.861415,25.9795228 C264.852426,26.0277051 263.905356,26.4774289 263.233512,27.2274037 C262.561668,27.9773785 262.221545,28.9645398 262.289748,29.9665508 L262.289748,30.0195506 C262.208341,31.0575701 262.564557,32.0825292 263.273156,32.8491591 C263.981754,33.6157889 264.978975,34.0551075 266.026186,34.0619875 C267.320373,34.0309321 268.543577,33.4673641 269.404004,32.5057216 L271.846501,34.9629836 C270.372271,36.739795 268.147229,37.7291161 265.832338,37.6370628 C263.798152,37.6776761 261.834405,36.896163 260.390258,35.4712767 C258.946111,34.0463905 258.145107,32.1000256 258.170458,30.0773685 Z M273.46514,17.3815149 L277.637739,17.3815149 L277.637739,24.7533009 C278.589907,23.3025138 280.208546,22.4210336 281.950878,22.4044475 C283.380371,22.338939 284.765409,22.907425 285.732103,23.9564428 C286.698797,25.0054607 287.147478,26.4268562 286.957027,27.8369238 L286.957027,37.3046097 L282.784428,37.3046097 L282.784428,29.1474635 C282.931933,28.4042714 282.73161,27.6347137 282.239994,27.0559693 C281.748377,26.4772249 281.018787,26.1520633 280.257123,26.1722492 C279.487676,26.1467626 278.747513,26.466741 278.241513,27.0436131 C277.735513,27.6204852 277.517357,28.393052 277.647431,29.1474635 L277.647431,37.3046097 L273.474832,37.3046097 L273.474832,17.3815149 L273.46514,17.3815149 Z M132.040214,22.2309937 C130.563072,22.2187088 129.147812,22.8199585 128.13574,23.889744 C127.123668,24.9595295 126.606649,26.4007482 126.709368,27.8658328 C126.659732,29.3304971 127.205561,30.7533052 128.223647,31.8130913 C129.241734,32.8728773 130.646256,33.4803054 132.120177,33.498273 C133.593895,33.5011482 135.003065,32.897358 136.012987,31.8303012 C137.022909,30.7632443 137.543468,29.3281349 137.451023,27.8658328 C137.501325,26.4007585 136.955792,24.9773227 135.937634,23.9170079 C134.919475,22.8566932 133.514569,22.2489344 132.040214,22.2309937 Z M0,0 L0,52 L156.746263,52 L156.746263,0 L0,0 Z M32.7120107,37.8683345 L14.5386714,37.8683345 L14.5386714,11.8743572 L20.1724066,11.8743572 L20.1724066,32.8333565 L32.7241262,32.8333565 L32.7241262,37.8779708 L32.7120107,37.8683345 Z M44.585259,33.8355339 C46.7111824,33.8805169 48.7752956,33.123008 50.3619578,31.7155432 L53.8560852,34.3872133 C51.3684045,36.8391764 48.0058567,38.2127824 44.5028732,38.2080272 C37.8271999,38.2080272 33.2354029,33.9053973 33.2354029,27.8658328 C33.2079819,25.0693094 34.3310113,22.3830638 36.3441654,20.4297851 C38.3573196,18.4765064 41.0857884,17.4258055 43.8970952,17.5212416 C46.9065788,17.3795478 49.822355,18.5820445 51.8473254,20.8 C53.174833,22.3940935 54.0156524,24.3326627 54.2704373,26.3866574 L40.1412718,32.2142228 C41.3472872,33.3296412 42.9544503,33.9149429 44.5997977,33.837943 L44.585259,33.8355339 Z M76.5073352,37.8683345 L70.9947556,37.8683345 L70.9947556,26.4830206 C70.948359,25.3066574 70.4303949,24.1976737 69.55638,23.4033957 C68.6823652,22.6091177 67.5249927,22.1956068 66.3423808,22.2550845 C65.1675418,22.1892696 64.0166609,22.6035321 63.1565024,23.4018495 C62.2963439,24.2001668 61.8015936,25.3132229 61.7869304,26.4830206 L61.7869304,37.8683345 L56.2598122,37.8683345 L56.2598122,17.8585129 L61.7869304,17.8585129 L61.7869304,20.7253185 L61.7869304,20.7253185 L61.7869304,20.7253185 C63.3634223,18.7120573 65.782441,17.5299784 68.3487174,17.5188325 C70.5195947,17.4008159 72.6405845,18.1943387 74.1946445,19.7059607 C75.7487045,21.2175826 76.5930581,23.3084262 76.5218739,25.4687978 L76.5218739,37.8731527 L76.5073352,37.8683345 Z M89.473407,38.2056057 C83.77925,37.9697364 79.3322213,33.2292531 79.4918541,27.5653809 C79.6514868,21.9015086 84.358543,17.4160482 90.0570503,17.4975661 C95.7555577,17.5790841 100.330863,22.1973299 100.326528,27.8634237 C100.31806,30.6797098 99.1590138,33.3717086 97.1152919,35.3218298 C95.07157,37.271951 92.3185949,38.3128063 89.4879457,38.2056057 L89.473407,38.2056057 Z M107.765479,37.8611073 L99.4832823,17.8657401 L105.795489,17.8657401 L110.796792,31.4914987 L115.793249,17.8609219 L122.105455,17.8609219 L113.823259,37.8562891 L107.765479,37.8562891 L107.765479,37.8611073 Z M132.025675,38.2056057 C126.331518,37.9697364 121.884489,33.2292531 122.044122,27.5653809 C122.203755,21.9015086 126.910811,17.4160482 132.609318,17.4975661 C138.307826,17.5790841 142.883131,22.1973299 142.878796,27.8634237 C142.870328,30.6797098 141.711282,33.3717086 139.66756,35.3218298 C137.623838,37.271951 134.870863,38.3128063 132.040214,38.2056057 L132.025675,38.2056057 Z M89.4879457,22.2309937 C88.0108038,22.2187088 86.5955434,22.8199585 85.5834715,23.889744 C84.5713996,24.9595295 84.0543805,26.4007482 84.1570995,27.8658328 C84.1074851,29.3288481 84.6519993,30.7501888 85.6679864,31.8096875 C86.6839734,32.8691862 88.0859879,33.4777381 89.5582159,33.498273 C91.0319346,33.5011482 92.4411045,32.897358 93.4510267,31.8303012 C94.4609489,30.7632443 94.9815075,29.3281349 94.8890621,27.8658328 C94.9393419,26.4024076 94.3951243,24.9804397 93.3790651,23.9204125 C92.3630059,22.8603854 90.9606085,22.2515024 89.4879457,22.2309937 L89.4879457,22.2309937 Z M44.0109815,21.8864953 C42.3540547,21.8305457 40.7716491,22.5723196 39.7608432,23.8788047 C38.7644787,25.2648357 38.3618703,26.9872398 38.6413655,28.6680565 L48.2974664,24.6858467 C47.567857,22.978142 45.8771264,21.8739858 44.0109815,21.8864953 L44.0109815,21.8864953 Z" id="形状_1945"></path>
            </g>
            <g id="footerLogo" transform="translate(331.000000, 0.000000)">
                <g id="Xiaohui@2x" transform="translate(53.000000, 0.000000)">
                    <polygon id="路径" fill="#FFFFFF" fill-rule="nonzero" points="85.01 46.8 74.29 46.8 87.23 25.98 75.23 5.54 85.84 5.54 93.17 19 100.95 5.54 111.67 5.54 98.95 25.98 111.56 46.8 100.95 46.8 93.06 32.95"></polygon>
                    <path d="M120.06,13.08 C118.66799,13.1263131 117.319747,12.5899154 116.34,11.6 C115.345338,10.6260678 114.801736,9.2815572 114.84,7.89 C114.801736,6.4984428 115.345338,5.15393224 116.34,4.18 C118.404257,2.2066494 121.655743,2.2066494 123.72,4.18 C124.714662,5.15393224 125.258264,6.4984428 125.22,7.89 C125.24724,9.26942168 124.71334,10.6008089 123.740583,11.5792212 C122.767826,12.5576334 121.439556,13.0992431 120.06,13.08 M124.33,46.8 L115.61,46.8 L115.61,16.21 L124.33,16.21 L124.33,46.8 Z" id="形状" fill="#FFFFFF" fill-rule="nonzero"></path>
                    <path d="M153.77,19.44 L153.77,16.21 L162,16.21 L162,46.8 L153.78,46.8 L153.78,43.67 C151.3286,46.2204845 147.927103,47.6368695 144.39,47.58 C140.29398,47.6838634 136.358045,45.988159 133.62,42.94 C130.769423,39.7586162 129.257587,35.5992753 129.4,31.33 C129.281519,27.1411956 130.811098,23.0730892 133.66,20 C136.406689,17.0059646 140.318617,15.3528834 144.38,15.47 C147.934582,15.4166808 151.345778,16.8697997 153.77,19.47 M138.11,31.47 C138.061481,33.6084717 138.834509,35.6841943 140.27,37.27 C141.728117,38.8036414 143.764269,39.6529452 145.88,39.61 C148.01122,39.6700867 150.06166,38.7928931 151.49,37.21 C152.972707,35.6692972 153.791417,33.6081597 153.77,31.47 C153.798268,29.3423953 152.977784,27.2911838 151.49,25.77 C150.007896,24.2713259 147.987761,23.4279726 145.88,23.4279726 C143.772239,23.4279726 141.752104,24.2713259 140.27,25.77 C138.835285,27.3162751 138.060355,29.3612306 138.11,31.47" id="形状" fill="#FFFFFF" fill-rule="nonzero"></path>
                    <path d="M183.6,47.63 C179.186692,47.7853536 174.905416,46.1097572 171.77,43 C168.744137,39.9497021 167.096721,35.7950358 167.21,31.5 C167.089635,27.2214019 168.739365,23.0826054 171.77,20.06 C178.436763,13.8076305 188.813237,13.8076305 195.48,20.06 C198.530609,23.0737907 200.202197,27.2129606 200.1,31.5 C200.189725,35.8697898 198.467609,40.0819945 195.342206,43.1373128 C192.216803,46.1926311 187.966632,47.8187898 183.6,47.63 M191.37,31.45 C191.414648,29.3537137 190.593528,27.3316605 189.1,25.86 C187.661458,24.3638915 185.67551,23.518374 183.6,23.518374 C181.52449,23.518374 179.538542,24.3638915 178.1,25.86 C176.623796,27.339438 175.821006,29.3608772 175.88,31.45 C175.81481,33.5845654 176.615491,35.6547955 178.1,37.19 C179.554996,38.6556333 181.534789,39.4799176 183.6,39.4799176 C185.665211,39.4799176 187.645004,38.6556333 189.1,37.19 C190.594056,35.6573695 191.411656,33.5899589 191.37,31.45" id="形状" fill="#FFFFFF" fill-rule="nonzero"></path>
                    <polygon id="路径" fill="#FFFFFF" fill-rule="nonzero" points="215.37 46.8 206.2 46.8 206.2 5.54 215.37 5.54 215.37 21.68 231.37 21.68 231.37 5.54 240.59 5.54 240.59 46.8 231.37 46.8 231.37 30.55 215.37 30.55"></polygon>
                    <path d="M261.75,47.58 C257.31,47.58 253.81,46.35 251.28,43.89 C248.75,41.43 247.47,38.03 247.47,33.68 L247.47,16.21 L256.19,16.21 L256.19,33.73 C256.100377,35.2928896 256.632388,36.8278147 257.67,38 C259.993157,40.0778951 263.506843,40.0778951 265.83,38 C266.852448,36.8274789 267.379507,35.3036678 267.3,33.75 L267.3,16.21 L276,16.21 L276,33.68 C276,38.1133333 274.743333,41.5366667 272.23,43.95 C269.716667,46.3633333 266.216667,47.5733333 261.73,47.58" id="路径" fill="#FFFFFF" fill-rule="nonzero"></path>
                    <path d="M286.91,13.08 C285.519474,13.1178791 284.174462,12.5827668 283.19,11.6 C282.195338,10.6260678 281.651736,9.2815572 281.69,7.89 C281.651736,6.4984428 282.195338,5.15393224 283.19,4.18 C285.25762,2.20538744 288.51238,2.20538744 290.58,4.18 C291.574662,5.15393224 292.118264,6.4984428 292.08,7.89 C292.107315,9.2711828 291.572057,10.6041444 290.59711,11.5828631 C289.622163,12.5615817 288.291278,13.1019825 286.91,13.08 M291.19,46.8 L282.46,46.8 L282.46,16.21 L291.19,16.21 L291.19,46.8 Z" id="形状" fill="#FFFFFF" fill-rule="nonzero"></path>
                    <rect id="矩形" x="0" y="0" width="292.08" height="52.6"></rect>
                    <path d="M12,3.55271368e-14 C13.0561247,0.0113993356 14.0284478,0.577321778 14.56,1.49 L14.56,1.49 L25.12,19.87 C27.4151571,23.8494498 27.4151571,28.7505502 25.12,32.73 L25.12,32.73 L14.53,51.11 C13.8652858,52.2380784 12.5457457,52.8047521 11.27,52.51 L11.27,52.51 L-1.76125781e-11,49.81 L5.71,28.31 C6.06523408,27.0003275 6.06523408,25.6196725 5.71,24.31 L5.71,24.31 L-1.76125781e-11,2.79 L11.3,0.08 L11.31,0.08 C11.5364817,0.0287603888 11.7678025,0.00194057814 12,3.55271368e-14 Z" id="形状结合" fill="#FFFFFF" fill-rule="nonzero"></path>
                    <path d="M46.7,-6.39488462e-14 C46.9354652,0.00249688028 47.170043,0.0293057705 47.4,0.08 L47.4,0.08 L58.67,2.79 L53,24.28 C52.6545981,25.5909641 52.6545981,26.9690359 53,28.28 L53,28.28 L58.67,49.81 L47.37,52.52 C46.0919687,52.8128999 44.7717836,52.2418996 44.11,51.11 L44.11,51.11 L33.54,32.73 C31.2510012,28.7489038 31.2510012,23.8510962 33.54,19.87 L33.54,19.87 L44.13,1.49 C44.6633701,0.574274825 45.6402953,0.00788632149 46.7,-6.39488462e-14 Z" id="形状结合" fill="#FFFFFF" fill-rule="nonzero"></path>
                </g>
                <line x1="0.5" y1="0.5" x2="0.5" y2="52.5" id="直线" stroke="#FFFFFF" stroke-width="5" stroke-linecap="square"></line>
            </g>
        </g>
    </g>
</svg>