<?xml version="1.0" encoding="UTF-8"?>
<svg width="1920px" height="1080px" viewBox="0 0 1920 1080" version="1.1" xmlns="http://www.w3.org/2000/svg" xmlns:xlink="http://www.w3.org/1999/xlink">
    <!-- Generator: Sketch 60.1 (88133) - https://sketch.com -->
    <title>Apple TV备份</title>
    <desc>Created with Sketch.</desc>
    <defs>
        <linearGradient x1="0%" y1="0%" x2="0%" y2="100%" id="linearGradient-1">
            <stop stop-color="#283DCC" offset="0%"></stop>
            <stop stop-color="#FD61C9" offset="100%"></stop>
        </linearGradient>
        <linearGradient x1="0%" y1="0%" x2="0%" y2="100%" id="linearGradient-2">
            <stop stop-color="#F2FED6" offset="0%"></stop>
            <stop stop-color="#C64139" offset="100%"></stop>
        </linearGradient>
        <linearGradient x1="0%" y1="0%" x2="0%" y2="100%" id="linearGradient-3">
            <stop stop-color="#F2FED6" offset="0%"></stop>
            <stop stop-color="#C64139" offset="100%"></stop>
        </linearGradient>
        <linearGradient x1="0%" y1="0%" x2="0%" y2="100%" id="linearGradient-4">
            <stop stop-color="#EE72CF" offset="0%"></stop>
            <stop stop-color="#081D0F" offset="100%"></stop>
        </linearGradient>
        <linearGradient x1="0%" y1="0%" x2="0%" y2="100%" id="linearGradient-5">
            <stop stop-color="#EE72CF" offset="0%"></stop>
            <stop stop-color="#081D0F" offset="100%"></stop>
        </linearGradient>
        <linearGradient x1="0%" y1="0%" x2="0%" y2="100%" id="linearGradient-6">
            <stop stop-color="#FE8480" offset="0%"></stop>
            <stop stop-color="#EB7C17" offset="100%"></stop>
        </linearGradient>
        <linearGradient x1="0%" y1="0%" x2="0%" y2="100%" id="linearGradient-7">
            <stop stop-color="#FE8480" offset="0%"></stop>
            <stop stop-color="#EB7C17" offset="100%"></stop>
        </linearGradient>
        <linearGradient x1="0%" y1="0%" x2="0%" y2="100%" id="linearGradient-8">
            <stop stop-color="#E9FFDF" offset="0%"></stop>
            <stop stop-color="#DCE3FE" offset="100%"></stop>
        </linearGradient>
        <linearGradient x1="0%" y1="0%" x2="0%" y2="100%" id="linearGradient-9">
            <stop stop-color="#E9FFDF" offset="0%"></stop>
            <stop stop-color="#DCE3FE" offset="100%"></stop>
        </linearGradient>
        <linearGradient x1="0%" y1="0%" x2="0%" y2="100%" id="linearGradient-10">
            <stop stop-color="#EFEBFF" offset="0%"></stop>
            <stop stop-color="#FFF4DC" offset="100%"></stop>
        </linearGradient>
        <linearGradient x1="0%" y1="0%" x2="0%" y2="100%" id="linearGradient-11">
            <stop stop-color="#EFEBFF" offset="0%"></stop>
            <stop stop-color="#FFF4DC" offset="100%"></stop>
        </linearGradient>
    </defs>
    <g id="Apple-TV备份" stroke="none" stroke-width="1" fill="none" fill-rule="evenodd">
        <rect id="SvgjsRect120927" fill="url(#linearGradient-1)" fill-rule="nonzero" x="0" y="0" width="1920" height="1089"></rect>
        <g id="SvgjsUse120935" transform="translate(850.500000, -85.500000) rotate(-330.000000) translate(-850.500000, 85.500000) translate(408.000000, -506.000000)" fill="url(#linearGradient-3)" fill-rule="nonzero" opacity="0.993713975">
            <g id="SvgjsG120934" transform="translate(442.679838, 420.603656) rotate(150.000000) translate(-442.679838, -420.603656) translate(97.179838, 135.103656)">
                <path d="M504.289453,569.22244 C368.93854,571.545129 313.083164,574.501274 219.20206,525.865644 C125.344399,477.253477 73.3079827,398.399467 17.5228839,268.915598 C-38.2622047,139.43174 48.5432473,-0.539405823 185.042187,0.0686116067 C321.541127,0.680592342 405.51164,2.76866437 490.63019,55.3223589 C575.725307,107.876053 612.438971,174.037407 671.808746,300.37744 C731.17852,426.694 639.640355,566.899762 504.289453,569.22244" id="SvgjsPath120932"></path>
            </g>
        </g>
        <g id="SvgjsUse120943" transform="translate(188.000000, 500.000000)" fill="url(#linearGradient-5)" fill-rule="nonzero" opacity="0.555367708">
            <g id="SvgjsG120942" transform="translate(619.500000, 456.500000) rotate(90.000000) translate(-619.500000, -456.500000) translate(164.000000, -161.000000)">
                <path d="M0.663419705,779.365738 L0.663419705,454.500389 C0.663419705,203.533842 204.265073,0.137043344 455.380036,0.137043344 C706.494979,0.137043344 910.096653,203.533842 910.096653,454.500389 L910.096653,779.365738 C910.096653,1030.28558 706.494979,1233.72906 455.380036,1233.72906 C204.265073,1233.72906 0.663419705,1030.28558 0.663419705,779.365738 Z" id="SvgjsPath120940"></path>
            </g>
        </g>
        <g id="SvgjsUse120951" transform="translate(-83.000000, 0.000000)" fill="url(#linearGradient-7)" fill-rule="nonzero" opacity="0.990697742">
            <g id="SvgjsG120950" transform="translate(407.500000, 405.500000) rotate(90.000000) translate(-407.500000, -405.500000) translate(3.000000, -1.000000)">
                <path d="M768.126286,529.683666 C744.21485,507.851171 706.312666,473.252475 670.304189,440.348402 C607.303483,382.8157 563.607161,307.263431 545.178953,224.000602 L516.377819,93.8812351 C506.796292,50.6964112 474.886101,13.9794229 431.726796,4.12231502 C409.426421,-0.961568557 385.882409,0.252913421 364.175564,7.76577347 C331.502251,19.0633064 299.959497,59.1413118 292.469507,92.8644659 C285.460008,124.525801 274.126103,175.562425 263.38574,223.972359 C244.957533,307.009245 201.40254,382.335558 138.656204,439.783532 L39.8165886,530.248537 C30.6024973,538.69345 22.8298622,548.550545 16.526959,559.141981 L16.0464694,559.198479 C15.4811898,560.187005 15.1985438,561.23203 14.6615275,562.220569 C2.36664307,584.30725 -3.03180777,609.754948 1.80136348,634.948448 C2.19706296,636.925513 3.12977867,638.761364 3.61026821,640.710186 C4.91040752,646.641394 6.80410231,652.374902 9.00870652,658.023668 C9.48919605,659.181664 9.74357876,660.396146 10.2523317,661.5259 C19.2968428,682.567556 34.4464136,701.208492 55.4183856,714.031191 C101.856328,742.444494 150.866298,764.672402 201.374264,780.714904 C267.08834,801.615333 335.317904,812.065555 403.519217,812.065555 C524.178718,812.065555 644.809955,779.387438 751.648312,714.031191 C752.552765,713.494564 753.231098,712.731981 754.13555,712.167098 C765.949957,705.049651 776.633781,695.983381 785.141288,684.43165 C793.281347,673.360073 799.527723,660.989272 803.597746,647.855889 C816.684042,605.546607 800.827863,559.565649 768.126286,529.683666" id="SvgjsPath120948"></path>
            </g>
        </g>
        <g id="SvgjsUse120959" transform="translate(1272.000000, -175.000000)" fill="url(#linearGradient-9)" fill-rule="nonzero" opacity="0.397013128">
            <g id="SvgjsG120958">
                <path d="M0.663792229,779.296124 L0.663792229,454.455506 C0.663792229,203.508064 204.379772,0.126748734 455.635742,0.126748734 C706.891692,0.126748734 910.607692,203.508064 910.607692,454.455506 L910.607692,779.296124 C910.607692,1030.19686 706.891692,1233.62486 455.635742,1233.62486 C204.379772,1233.62486 0.663792229,1030.19686 0.663792229,779.296124 Z" id="SvgjsPath120956"></path>
            </g>
        </g>
        <g id="SvgjsUse120975" transform="translate(449.000000, 667.000000)" fill="url(#linearGradient-11)" fill-rule="nonzero" opacity="0.981426597">
            <g id="SvgjsG120974" transform="translate(727.000000, 393.000000) rotate(90.000000) translate(-727.000000, -393.000000) translate(334.000000, -334.000000)">
                <path d="M785.770941,1060.82392 C785.770941,1277.47981 609.896039,1453.08887 392.915167,1453.08887 C175.934313,1453.08887 0.0618342485,1277.47981 0.0618342485,1060.82392 C0.0618342485,980.158049 24.5282982,905.282193 66.4310521,843.017818 C112.82198,774.090987 117.508744,683.906902 70.0056958,615.693687 C21.3905457,545.894226 -5.06182105,459.636512 0.895924548,366.834908 C14.3206982,158.547027 195.674284,0.427306361 404.711489,0.427306361 C556.633854,0.427306361 696.243547,90.2545831 753.199526,230.884593 C811.108746,373.735421 787.595541,512.699955 715.824638,615.693687 C668.321608,683.906902 673.008354,774.090987 719.399282,843.017818 C761.302054,905.282193 785.770941,980.158049 785.770941,1060.82392 Z" id="SvgjsPath120972"></path>
            </g>
        </g>
    </g>
</svg>