<?xml version="1.0" encoding="UTF-8"?>
<svg width="640px" height="640px" viewBox="0 0 640 640" version="1.1" xmlns="http://www.w3.org/2000/svg" xmlns:xlink="http://www.w3.org/1999/xlink">
    <!-- Generator: Sketch 60 (88103) - https://sketch.com -->
    <title>icon_interaction</title>
    <desc>Created with Sketch.</desc>
    <defs>
        <polygon id="path-1" points="0 0.795 538.8779 0.795 538.8779 577 0 577"></polygon>
    </defs>
    <g id="icon_interaction" stroke="none" stroke-width="1" fill="none" fill-rule="evenodd">
        <g id="编组" transform="translate(49.000000, 44.000000)">
            <g transform="translate(0.000000, 0.205000)">
                <mask id="mask-2" fill="white">
                    <use xlink:href="#path-1"></use>
                </mask>
                <g id="Clip-2"></g>
                <path d="M518.8779,514.4814 C518.8779,537.9254 499.8049,557.0004 476.3599,557.0004 L62.5179,557.0004 C39.0729,557.0004 19.9999,537.9254 19.9999,514.4814 L19.9999,217.6714 C19.9999,194.2274 39.0729,175.1544 62.5179,175.1544 L72.0089,175.1544 L72.0089,362.3324 C72.0089,367.3024 76.0379,371.3324 81.0089,371.3324 C85.9799,371.3324 90.0089,367.3024 90.0089,362.3324 C90.0089,349.6334 93.6629,339.8454 101.1819,332.4054 C112.4439,321.2604 132.1979,315.6164 159.9239,315.6164 C160.6489,315.6164 161.3809,315.6204 162.1149,315.6274 C162.8719,315.6354 163.5219,315.6424 164.0519,315.6424 L327.4959,315.6424 C344.9329,315.6424 359.1179,301.4574 359.1179,284.0204 L359.1179,198.1304 L381.8269,198.1304 C382.3569,198.1304 383.0069,198.1244 383.7639,198.1164 C412.6399,197.8254 433.1409,203.4574 444.6969,214.8934 C452.2159,222.3334 455.8699,232.1224 455.8699,244.8194 C455.8699,249.7904 459.8989,253.8194 464.8699,253.8194 C469.8409,253.8194 473.8699,249.7904 473.8699,244.8194 L473.8699,175.1544 L476.3599,175.1544 C499.8049,175.1544 518.8779,194.2274 518.8779,217.6714 L518.8779,514.4814 Z M90.0089,149.9294 C90.0089,142.4194 96.1199,136.3074 103.6309,136.3074 L186.7609,136.3074 L186.7609,155.1544 L186.7609,166.5084 C186.7609,169.5054 187.1889,172.4044 187.9719,175.1544 C191.7429,188.4004 203.9439,198.1304 218.3819,198.1304 L341.1179,198.1304 L341.1179,284.0204 C341.1179,291.5324 335.0069,297.6424 327.4959,297.6424 L164.0519,297.6424 C163.5729,297.6424 162.9869,297.6354 162.3049,297.6284 C149.9599,297.5014 112.9149,297.1104 90.0089,318.1914 L90.0089,175.1544 L90.0089,155.1544 L90.0089,149.9294 Z M204.7609,166.5084 L204.7609,155.1544 L204.7609,136.3074 L327.4959,136.3074 C335.0069,136.3074 341.1179,142.4194 341.1179,149.9294 L341.1179,155.1544 L341.1179,175.1544 L341.1179,180.1304 L218.3819,180.1304 C214.1499,180.1304 210.3639,178.1914 207.8639,175.1544 C205.9269,172.8004 204.7609,169.7894 204.7609,166.5084 L204.7609,166.5084 Z M204.7609,32.4174 C204.7609,24.9054 210.8709,18.7944 218.3819,18.7944 L442.2469,18.7944 C449.7589,18.7944 455.8699,24.9054 455.8699,32.4174 L455.8699,155.1544 L455.8699,175.1544 L455.8699,200.6784 C435.0269,181.4974 402.4839,180.0914 387.4859,180.0914 C386.0019,180.0914 384.6869,180.1054 383.5739,180.1174 C382.8919,180.1244 382.3059,180.1304 381.8269,180.1304 L359.1179,180.1304 L359.1179,175.1544 L359.1179,155.1544 L359.1179,149.9294 C359.1179,132.4934 344.9329,118.3074 327.4959,118.3074 L204.7609,118.3074 L204.7609,32.4174 Z M476.3599,155.1544 L473.8699,155.1544 L473.8699,32.4174 C473.8699,14.9804 459.6849,0.7944 442.2469,0.7944 L218.3819,0.7944 C200.9459,0.7944 186.7609,14.9804 186.7609,32.4174 L186.7609,118.3074 L103.6309,118.3074 C86.1939,118.3074 72.0089,132.4934 72.0089,149.9294 L72.0089,155.1544 L62.5179,155.1544 C28.0449,155.1544 -0.0001,183.1994 -0.0001,217.6714 L-0.0001,514.4814 C-0.0001,548.9544 28.0449,577.0004 62.5179,577.0004 L476.3599,577.0004 C510.8329,577.0004 538.8779,548.9544 538.8779,514.4814 L538.8779,217.6714 C538.8779,183.1994 510.8329,155.1544 476.3599,155.1544 L476.3599,155.1544 Z" id="Fill-1" fill="#595D64" mask="url(#mask-2)"></path>
            </g>
            <path d="M215.5635,510.3652 C188.7115,510.3652 166.8675,488.5202 166.8675,461.6692 C166.8675,434.8172 188.7115,412.9722 215.5635,412.9722 C242.4155,412.9722 264.2595,434.8172 264.2595,461.6692 C264.2595,488.5202 242.4155,510.3652 215.5635,510.3652 M215.5635,392.9722 C177.6845,392.9722 146.8675,423.7902 146.8675,461.6692 C146.8675,499.5482 177.6845,530.3652 215.5635,530.3652 C253.4425,530.3652 284.2595,499.5482 284.2595,461.6692 C284.2595,423.7902 253.4425,392.9722 215.5635,392.9722" id="Fill-3" fill="#595D64"></path>
            <path d="M379.4658,387.7255 C368.7978,387.7255 360.1178,379.0455 360.1178,368.3775 C360.1178,357.7085 368.7978,349.0295 379.4658,349.0295 C390.1348,349.0295 398.8148,357.7085 398.8148,368.3775 C398.8148,379.0455 390.1348,387.7255 379.4658,387.7255 M379.4658,329.0295 C357.7698,329.0295 340.1178,346.6805 340.1178,368.3775 C340.1178,390.0745 357.7698,407.7255 379.4658,407.7255 C401.1628,407.7255 418.8148,390.0745 418.8148,368.3775 C418.8148,346.6805 401.1628,329.0295 379.4658,329.0295" id="Fill-5" fill="#595D64"></path>
        </g>
    </g>
</svg>