<svg xmlns="http://www.w3.org/2000/svg" width="90" height="90" viewBox="0 0 90 90">
  <metadata><?xpacket begin="﻿" id="W5M0MpCehiHzreSzNTczkc9d"?>
<x:xmpmeta xmlns:x="adobe:ns:meta/" x:xmptk="Adobe XMP Core 5.6-c140 79.160451, 2017/05/06-01:08:21        ">
   <rdf:RDF xmlns:rdf="http://www.w3.org/1999/02/22-rdf-syntax-ns#">
      <rdf:Description rdf:about=""/>
   </rdf:RDF>
</x:xmpmeta>
                                                                                                    
                                                                                                    
                                                                                                    
                                                                                                    
                                                                                                    
                                                                                                    
                                                                                                    
                                                                                                    
                                                                                                    
                                                                                                    
                                                                                                    
                                                                                                    
                                                                                                    
                                                                                                    
                                                                                                    
                                                                                                    
                                                                                                    
                                                                                                    
                                                                                                    
                                                                                                    
                           
<?xpacket end="w"?></metadata>
<defs>
    <style>
      .cls-1 {
        fill: #65727b;
        fill-rule: evenodd;
      }
    </style>
  </defs>
  <path id="互动2" class="cls-1" d="M20.784,11A4.77,4.77,0,0,0,16,15.7V50.2a4.77,4.77,0,0,0,4.784,4.7H44.7V69.023A1.582,1.582,0,0,0,46.3,70.591h3.189v7.841A1.582,1.582,0,0,0,51.081,80H62.243a1.582,1.582,0,0,0,1.595-1.568V70.591h3.189a1.582,1.582,0,0,0,1.595-1.568V54.909h1.595A4.77,4.77,0,0,0,75,50.2V15.7A4.77,4.77,0,0,0,70.216,11H20.784Zm0,3.136H70.216A1.545,1.545,0,0,1,71.811,15.7V50.2a1.545,1.545,0,0,1-1.595,1.568H68.373a11.992,11.992,0,0,0-23.421,0H20.784A1.545,1.545,0,0,1,19.189,50.2V15.7A1.545,1.545,0,0,1,20.784,14.136ZM56.662,25.114a7.058,7.058,0,1,0,7.176,7.057A7.141,7.141,0,0,0,56.662,25.114Zm0,3.136a3.921,3.921,0,1,1-3.986,3.92A3.93,3.93,0,0,1,56.662,28.25Zm0,17.25a8.645,8.645,0,0,1,8.77,8.625V67.455H62.243a1.582,1.582,0,0,0-1.595,1.568v7.841H52.676V69.023a1.582,1.582,0,0,0-1.595-1.568H47.892V54.125A8.645,8.645,0,0,1,56.662,45.5Z" transform="translate(-0.5 -0.5)"/>
</svg>
