<svg xmlns="http://www.w3.org/2000/svg" width="152" height="40" viewBox="0 0 152 40">
  <metadata><?xpacket begin="﻿" id="W5M0MpCehiHzreSzNTczkc9d"?>
<x:xmpmeta xmlns:x="adobe:ns:meta/" x:xmptk="Adobe XMP Core 5.6-c140 79.160451, 2017/05/06-01:08:21        ">
   <rdf:RDF xmlns:rdf="http://www.w3.org/1999/02/22-rdf-syntax-ns#">
      <rdf:Description rdf:about=""/>
   </rdf:RDF>
</x:xmpmeta>
                                                                                                    
                                                                                                    
                                                                                                    
                                                                                                    
                                                                                                    
                                                                                                    
                                                                                                    
                                                                                                    
                                                                                                    
                                                                                                    
                                                                                                    
                                                                                                    
                                                                                                    
                                                                                                    
                                                                                                    
                                                                                                    
                                                                                                    
                                                                                                    
                                                                                                    
                                                                                                    
                           
<?xpacket end="w"?></metadata>
<defs>
    <style>
      .cls-1 {
        fill: #fff;
        fill-rule: evenodd;
      }
    </style>
  </defs>
  <path id="形状_2309" data-name="形状 2309" class="cls-1" d="M10.988,32.458H4l8.438-13.437L4.614,5.836h6.917l4.781,8.682,5.07-8.682h6.991L20.078,19.021,28.3,32.458H21.381l-5.142-8.934ZM33.839,10.7a3.329,3.329,0,0,1-2.426-.956,3.2,3.2,0,0,1-.977-2.393,3.211,3.211,0,0,1,.977-2.4A3.334,3.334,0,0,1,33.839,4a3.287,3.287,0,0,1,2.389.954,3.213,3.213,0,0,1,.98,2.4,3.2,3.2,0,0,1-.98,2.393,3.283,3.283,0,0,1-2.389.956m2.789,21.759H30.942V12.717h5.686V32.458ZM55.821,14.806V12.717h5.36V32.458h-5.36V30.441a8.361,8.361,0,0,1-6.12,2.521,9.2,9.2,0,0,1-7.025-2.99,10.641,10.641,0,0,1-2.753-7.494,10.289,10.289,0,0,1,2.789-7.348,9.192,9.192,0,0,1,6.99-2.918,8.244,8.244,0,0,1,6.12,2.594M45.609,22.551A5.365,5.365,0,0,0,47.022,26.3a4.92,4.92,0,0,0,3.657,1.511,4.792,4.792,0,0,0,3.658-1.548,5.25,5.25,0,0,0,1.484-3.71,5.128,5.128,0,0,0-1.484-3.674,5.174,5.174,0,0,0-7.315,0,5.187,5.187,0,0,0-1.413,3.674M75.269,33a10.473,10.473,0,0,1-7.715-2.989,10.111,10.111,0,0,1-2.969-7.421A10,10,0,0,1,67.555,15.2a10.411,10.411,0,0,1,7.715-3.025A10.375,10.375,0,0,1,83.019,15.2a10.008,10.008,0,0,1,3.007,7.386,10.2,10.2,0,0,1-3.007,7.421A10.515,10.515,0,0,1,75.269,33m5.07-10.446a5.118,5.118,0,0,0-5.07-5.116,5.057,5.057,0,0,0-5.033,5.116,5.076,5.076,0,0,0,1.449,3.71,5.088,5.088,0,0,0,7.169,0,5.178,5.178,0,0,0,1.484-3.71m15.644,9.907H90.008V5.836h5.974v10.41h10.431V5.836h6.011V32.458h-6.011V21.975H95.983V32.458Zm30.241,0.5a9.46,9.46,0,0,1-6.826-2.376,8.7,8.7,0,0,1-2.481-6.593V12.717H122.6v11.31a3.8,3.8,0,0,0,.959,2.738,4.013,4.013,0,0,0,5.323,0,3.8,3.8,0,0,0,.96-2.738V12.717h5.685V23.992a8.714,8.714,0,0,1-2.462,6.629,9.539,9.539,0,0,1-6.844,2.34m16.4-22.263a3.325,3.325,0,0,1-2.426-.956,3.2,3.2,0,0,1-.978-2.393,3.213,3.213,0,0,1,.978-2.4A3.33,3.33,0,0,1,142.629,4a3.291,3.291,0,0,1,2.39.954A3.218,3.218,0,0,1,146,7.35a3.208,3.208,0,0,1-.979,2.393,3.286,3.286,0,0,1-2.39.956m2.788,21.759h-5.685V12.717h5.685V32.458Z"/>
</svg>
