<?xml version="1.0" encoding="UTF-8"?>
<svg width="293px" height="53px" viewBox="0 0 293 53" version="1.1" xmlns="http://www.w3.org/2000/svg" xmlns:xlink="http://www.w3.org/1999/xlink">
    <!-- Generator: Sketch 63.1 (92452) - https://sketch.com -->
    <title>画板备份</title>
    <desc>Created with Sketch.</desc>
    <g id="画板备份" stroke="none" stroke-width="1" fill="none" fill-rule="evenodd">
        <g id="Xiaohui@2x">
            <polygon id="路径" fill="#FFFFFF" fill-rule="nonzero" points="85.01 46.8 74.29 46.8 87.23 25.98 75.23 5.54 85.84 5.54 93.17 19 100.95 5.54 111.67 5.54 98.95 25.98 111.56 46.8 100.95 46.8 93.06 32.95"></polygon>
            <path d="M120.06,13.08 C118.66799,13.1263131 117.319747,12.5899154 116.34,11.6 C115.345338,10.6260678 114.801736,9.2815572 114.84,7.89 C114.801736,6.4984428 115.345338,5.15393224 116.34,4.18 C118.404257,2.2066494 121.655743,2.2066494 123.72,4.18 C124.714662,5.15393224 125.258264,6.4984428 125.22,7.89 C125.24724,9.26942168 124.71334,10.6008089 123.740583,11.5792212 C122.767826,12.5576334 121.439556,13.0992431 120.06,13.08 M124.33,46.8 L115.61,46.8 L115.61,16.21 L124.33,16.21 L124.33,46.8 Z" id="形状" fill="#FFFFFF" fill-rule="nonzero"></path>
            <path d="M153.77,19.44 L153.77,16.21 L162,16.21 L162,46.8 L153.78,46.8 L153.78,43.67 C151.3286,46.2204845 147.927103,47.6368695 144.39,47.58 C140.29398,47.6838634 136.358045,45.988159 133.62,42.94 C130.769423,39.7586162 129.257587,35.5992753 129.4,31.33 C129.281519,27.1411956 130.811098,23.0730892 133.66,20 C136.406689,17.0059646 140.318617,15.3528834 144.38,15.47 C147.934582,15.4166808 151.345778,16.8697997 153.77,19.47 M138.11,31.47 C138.061481,33.6084717 138.834509,35.6841943 140.27,37.27 C141.728117,38.8036414 143.764269,39.6529452 145.88,39.61 C148.01122,39.6700867 150.06166,38.7928931 151.49,37.21 C152.972707,35.6692972 153.791417,33.6081597 153.77,31.47 C153.798268,29.3423953 152.977784,27.2911838 151.49,25.77 C150.007896,24.2713259 147.987761,23.4279726 145.88,23.4279726 C143.772239,23.4279726 141.752104,24.2713259 140.27,25.77 C138.835285,27.3162751 138.060355,29.3612306 138.11,31.47" id="形状" fill="#FFFFFF" fill-rule="nonzero"></path>
            <path d="M183.6,47.63 C179.186692,47.7853536 174.905416,46.1097572 171.77,43 C168.744137,39.9497021 167.096721,35.7950358 167.21,31.5 C167.089635,27.2214019 168.739365,23.0826054 171.77,20.06 C178.436763,13.8076305 188.813237,13.8076305 195.48,20.06 C198.530609,23.0737907 200.202197,27.2129606 200.1,31.5 C200.189725,35.8697898 198.467609,40.0819945 195.342206,43.1373128 C192.216803,46.1926311 187.966632,47.8187898 183.6,47.63 M191.37,31.45 C191.414648,29.3537137 190.593528,27.3316605 189.1,25.86 C187.661458,24.3638915 185.67551,23.518374 183.6,23.518374 C181.52449,23.518374 179.538542,24.3638915 178.1,25.86 C176.623796,27.339438 175.821006,29.3608772 175.88,31.45 C175.81481,33.5845654 176.615491,35.6547955 178.1,37.19 C179.554996,38.6556333 181.534789,39.4799176 183.6,39.4799176 C185.665211,39.4799176 187.645004,38.6556333 189.1,37.19 C190.594056,35.6573695 191.411656,33.5899589 191.37,31.45" id="形状" fill="#FFFFFF" fill-rule="nonzero"></path>
            <polygon id="路径" fill="#FFFFFF" fill-rule="nonzero" points="215.37 46.8 206.2 46.8 206.2 5.54 215.37 5.54 215.37 21.68 231.37 21.68 231.37 5.54 240.59 5.54 240.59 46.8 231.37 46.8 231.37 30.55 215.37 30.55"></polygon>
            <path d="M261.75,47.58 C257.31,47.58 253.81,46.35 251.28,43.89 C248.75,41.43 247.47,38.03 247.47,33.68 L247.47,16.21 L256.19,16.21 L256.19,33.73 C256.100377,35.2928896 256.632388,36.8278147 257.67,38 C259.993157,40.0778951 263.506843,40.0778951 265.83,38 C266.852448,36.8274789 267.379507,35.3036678 267.3,33.75 L267.3,16.21 L276,16.21 L276,33.68 C276,38.1133333 274.743333,41.5366667 272.23,43.95 C269.716667,46.3633333 266.216667,47.5733333 261.73,47.58" id="路径" fill="#FFFFFF" fill-rule="nonzero"></path>
            <path d="M286.91,13.08 C285.519474,13.1178791 284.174462,12.5827668 283.19,11.6 C282.195338,10.6260678 281.651736,9.2815572 281.69,7.89 C281.651736,6.4984428 282.195338,5.15393224 283.19,4.18 C285.25762,2.20538744 288.51238,2.20538744 290.58,4.18 C291.574662,5.15393224 292.118264,6.4984428 292.08,7.89 C292.107315,9.2711828 291.572057,10.6041444 290.59711,11.5828631 C289.622163,12.5615817 288.291278,13.1019825 286.91,13.08 M291.19,46.8 L282.46,46.8 L282.46,16.21 L291.19,16.21 L291.19,46.8 Z" id="形状" fill="#FFFFFF" fill-rule="nonzero"></path>
            <rect id="矩形" x="0" y="0" width="292.08" height="52.6"></rect>
            <path d="M12,3.55271368e-14 C13.0561247,0.0113993356 14.0284478,0.577321778 14.56,1.49 L14.56,1.49 L25.12,19.87 C27.4151571,23.8494498 27.4151571,28.7505502 25.12,32.73 L25.12,32.73 L14.53,51.11 C13.8652858,52.2380784 12.5457457,52.8047521 11.27,52.51 L11.27,52.51 L-1.76125781e-11,49.81 L5.71,28.31 C6.06523408,27.0003275 6.06523408,25.6196725 5.71,24.31 L5.71,24.31 L-1.76125781e-11,2.79 L11.3,0.08 L11.31,0.08 C11.5364817,0.0287603888 11.7678025,0.00194057814 12,3.55271368e-14 Z" id="形状结合" fill="#5376FF" fill-rule="nonzero"></path>
            <path d="M46.7,-6.39488462e-14 C46.9354652,0.00249688028 47.170043,0.0293057705 47.4,0.08 L47.4,0.08 L58.67,2.79 L53,24.28 C52.6545981,25.5909641 52.6545981,26.9690359 53,28.28 L53,28.28 L58.67,49.81 L47.37,52.52 C46.0919687,52.8128999 44.7717836,52.2418996 44.11,51.11 L44.11,51.11 L33.54,32.73 C31.2510012,28.7489038 31.2510012,23.8510962 33.54,19.87 L33.54,19.87 L44.13,1.49 C44.6633701,0.574274825 45.6402953,0.00788632149 46.7,-6.39488462e-14 Z" id="形状结合" fill="#5376FF" fill-rule="nonzero"></path>
        </g>
    </g>
</svg>