<svg xmlns="http://www.w3.org/2000/svg" width="32.9" height="23" viewBox="0 0 32.9 23">
  <metadata><?xpacket begin="﻿" id="W5M0MpCehiHzreSzNTczkc9d"?>
<x:xmpmeta xmlns:x="adobe:ns:meta/" x:xmptk="Adobe XMP Core 5.6-c140 79.160451, 2017/05/06-01:08:21        ">
   <rdf:RDF xmlns:rdf="http://www.w3.org/1999/02/22-rdf-syntax-ns#">
      <rdf:Description rdf:about=""/>
   </rdf:RDF>
</x:xmpmeta>
                                                                                                    
                                                                                                    
                                                                                                    
                                                                                                    
                                                                                                    
                                                                                                    
                                                                                                    
                                                                                                    
                                                                                                    
                                                                                                    
                                                                                                    
                                                                                                    
                                                                                                    
                                                                                                    
                                                                                                    
                                                                                                    
                                                                                                    
                                                                                                    
                                                                                                    
                                                                                                    
                           
<?xpacket end="w"?></metadata>
<defs>
    <style>
      .cls-1 {
        fill: #fff;
        fill-rule: evenodd;
      }
    </style>
  </defs>
  <path id="形状_805" data-name="形状 805" class="cls-1" d="M15381,1338.79h-0.3c-10.1,0-12.2-.01-22.2.01a2.428,2.428,0,0,1-2.4-1.56,2.339,2.339,0,0,1,1.9-3.01c0.9-.06,1.8-0.03,2.7-0.03h20c0.1,0,.2-0.01.4-0.02a1.346,1.346,0,0,0-.3-0.29c-1.6-1.65-3.2-3.29-4.8-4.95a2.311,2.311,0,0,1,.3-3.6,2.344,2.344,0,0,1,2.9.37c1,1.05,2.1,2.1,3.1,3.16,1.9,1.96,3.9,3.92,5.8,5.88a2.446,2.446,0,0,1,.8,1.96,2.305,2.305,0,0,1-.8,1.51c-2.3,2.36-4.6,4.72-7,7.09-0.6.67-1.3,1.35-2,2.01a2.227,2.227,0,0,1-3.6-.59,2.293,2.293,0,0,1,.5-2.69c1.2-1.3,2.5-2.58,3.8-3.87a12.625,12.625,0,0,1,1.1-1.09c0-.06.1-0.14,0.1-0.21v-0.08Z" transform="translate(-15356 -1325)"/>
</svg>
