<svg xmlns="http://www.w3.org/2000/svg" width="90" height="90" viewBox="0 0 90 90">
  <metadata><?xpacket begin="﻿" id="W5M0MpCehiHzreSzNTczkc9d"?>
<x:xmpmeta xmlns:x="adobe:ns:meta/" x:xmptk="Adobe XMP Core 5.6-c140 79.160451, 2017/05/06-01:08:21        ">
   <rdf:RDF xmlns:rdf="http://www.w3.org/1999/02/22-rdf-syntax-ns#">
      <rdf:Description rdf:about=""/>
   </rdf:RDF>
</x:xmpmeta>
                                                                                                    
                                                                                                    
                                                                                                    
                                                                                                    
                                                                                                    
                                                                                                    
                                                                                                    
                                                                                                    
                                                                                                    
                                                                                                    
                                                                                                    
                                                                                                    
                                                                                                    
                                                                                                    
                                                                                                    
                                                                                                    
                                                                                                    
                                                                                                    
                                                                                                    
                                                                                                    
                           
<?xpacket end="w"?></metadata>
<defs>
    <style>
      .cls-1 {
        fill: #fffff7;
        fill-rule: evenodd;
      }
    </style>
  </defs>
  <path id="包装" class="cls-1" d="M66.492,61.247a1.477,1.477,0,0,1-.842-0.266l-5.377-3.739L54.9,60.981a1.477,1.477,0,0,1-2.26-1.64l1.891-6.266-5.215-3.96a1.478,1.478,0,0,1,.857-2.66l6.544-.133,2.157-6.192a1.477,1.477,0,0,1,2.792,0l2.157,6.192,6.544,0.133a1.478,1.478,0,0,1,.857,2.66L66,53.075,67.9,59.341a1.477,1.477,0,0,1-1.477,1.906h0.074Zm-6.219-7.285a1.477,1.477,0,0,1,.842.266l2.733,1.906-0.96-3.192a1.478,1.478,0,0,1,.517-1.611l2.644-2.01H62.725a1.477,1.477,0,0,1-1.359-.99l-1.093-3.207L59.18,48.273a1.477,1.477,0,0,1-1.359.99H54.5l2.644,2.01a1.478,1.478,0,0,1,.517,1.611L56.7,56.075l2.733-1.906A1.477,1.477,0,0,1,60.273,53.962ZM78,50.9a17.727,17.727,0,0,0-21.731-17.26L55.841,21.349a1.478,1.478,0,0,0-1.477-1.478H42.546V18.393a7.386,7.386,0,1,0-14.773,0v1.478H15.955a1.477,1.477,0,0,0-1.477,1.478L13,64.2a1.478,1.478,0,0,0,1.477,1.478h32.5V77.5a1.477,1.477,0,0,0,2.142,1.315L54.364,76.2l5.244,2.63a1.476,1.476,0,0,0,1.315,0l5.259-2.63,5.244,2.63a1.478,1.478,0,0,0,2.142-1.33V62.592A17.647,17.647,0,0,0,78,50.9ZM60.273,36.126A14.777,14.777,0,1,1,45.5,50.9,14.775,14.775,0,0,1,60.273,36.126ZM30.727,18.393a4.432,4.432,0,1,1,8.864,0v1.478H30.727V18.393ZM15.955,62.725l1.477-39.9H27.773v2.955a1.477,1.477,0,1,0,2.955,0V22.826h8.864v2.955a1.477,1.477,0,1,0,2.955,0V22.826H52.886l0.4,11.822a17.735,17.735,0,0,0-6.308,27.929v0.148H15.955ZM66.788,73.231a1.477,1.477,0,0,0-1.315,0l-5.2,2.615-5.244-2.63a1.477,1.477,0,0,0-1.315,0l-3.782,1.892V65.266a17.561,17.561,0,0,0,20.682,0v9.827Z" transform="translate(-0.5)"/>
</svg>
