<?xml version="1.0" encoding="UTF-8"?>
<svg width="640px" height="640px" viewBox="0 0 640 640" version="1.1" xmlns="http://www.w3.org/2000/svg" xmlns:xlink="http://www.w3.org/1999/xlink">
    <!-- Generator: Sketch 60 (88103) - https://sketch.com -->
    <title>icon_packing</title>
    <desc>Created with Sketch.</desc>
    <defs>
        <polygon id="path-1" points="0 0.06 620.9897 0.06 620.9897 588 0 588"></polygon>
    </defs>
    <g id="icon_packing" stroke="none" stroke-width="1" fill="none" fill-rule="evenodd">
        <g id="编组" transform="translate(10.000000, 33.000000)">
            <g transform="translate(0.000000, 0.940000)">
                <mask id="mask-2" fill="white">
                    <use xlink:href="#path-1"></use>
                </mask>
                <g id="Clip-2"></g>
                <path d="M600.9897,166.5654 C600.9897,185.8954 585.2637,201.6214 565.9337,201.6214 L252.0647,201.6214 L252.0647,74.6924 L565.9337,74.6924 C585.2637,74.6924 600.9897,90.4184 600.9897,109.7484 L600.9897,166.5654 Z M558.1757,532.9444 C558.1757,552.2744 542.4497,568.0004 523.1197,568.0004 L97.8687,568.0004 C78.5397,568.0004 62.8137,552.2744 62.8137,532.9444 L62.8137,222.2474 L112.8447,222.2474 L112.8447,393.1624 L182.5657,339.6524 L252.0647,391.0624 L252.0647,222.2474 L558.1757,222.2474 L558.1757,532.9444 Z M19.9997,166.5654 L19.9997,109.7484 C19.9997,90.4184 35.7257,74.6924 55.0557,74.6924 L112.8447,74.6924 L112.8447,201.6214 L55.0557,201.6214 C35.7257,201.6214 19.9997,185.8954 19.9997,166.5654 L19.9997,166.5654 Z M132.8447,48.8844 C132.8447,32.9904 145.7757,20.0594 161.6707,20.0594 L203.2397,20.0594 C219.1337,20.0594 232.0647,32.9904 232.0647,48.8844 L232.0647,54.6924 L232.0647,74.6924 L232.0647,201.6214 L232.0647,202.2474 L232.0647,221.6214 L232.0647,222.2474 L232.0647,351.3904 L182.3437,314.6114 L132.8447,352.6014 L132.8447,222.2474 L132.8447,221.6214 L132.8447,202.2474 L132.8447,201.6214 L132.8447,74.6924 L132.8447,54.6924 L132.8447,48.8844 Z M565.9337,54.6924 L252.0647,54.6924 L252.0647,48.8844 C252.0647,21.9624 230.1617,0.0594 203.2397,0.0594 L161.6707,0.0594 C134.7477,0.0594 112.8447,21.9624 112.8447,48.8844 L112.8447,54.6924 L55.0557,54.6924 C24.6977,54.6924 -0.0003,79.3904 -0.0003,109.7484 L-0.0003,166.5654 C-0.0003,192.7144 18.3307,214.6484 42.8137,220.2324 L42.8137,532.9444 C42.8137,563.3014 67.5107,588.0004 97.8687,588.0004 L523.1197,588.0004 C553.4777,588.0004 578.1757,563.3014 578.1757,532.9444 L578.1757,220.2324 C602.6587,214.6494 620.9897,192.7144 620.9897,166.5654 L620.9897,109.7484 C620.9897,79.3904 596.2917,54.6924 565.9337,54.6924 L565.9337,54.6924 Z" id="Fill-1" fill="#595D64" mask="url(#mask-2)"></path>
            </g>
            <path d="M356.9546,297.939 L466.2736,297.939 C486.3776,297.939 502.7326,314.294 502.7326,334.399 C502.7326,354.503 486.3776,370.859 466.2736,370.859 L356.9546,370.859 C336.8506,370.859 320.4946,354.503 320.4946,334.399 C320.4946,314.294 336.8506,297.939 356.9546,297.939 M356.9546,390.859 L466.2736,390.859 C497.4056,390.859 522.7326,365.531 522.7326,334.399 C522.7326,303.267 497.4056,277.939 466.2736,277.939 L356.9546,277.939 C325.8226,277.939 300.4946,303.267 300.4946,334.399 C300.4946,365.531 325.8226,390.859 356.9546,390.859" id="Fill-3" fill="#595D64"></path>
            <path d="M490.458,446.2369 L375.788,446.2369 C370.265,446.2369 365.788,450.7149 365.788,456.2369 C365.788,461.7589 370.265,466.2369 375.788,466.2369 L490.458,466.2369 C495.981,466.2369 500.458,461.7589 500.458,456.2369 C500.458,450.7149 495.981,446.2369 490.458,446.2369" id="Fill-5" fill="#595D64"></path>
        </g>
    </g>
</svg>