<?xml version="1.0" encoding="UTF-8"?>
<svg width="27px" height="27px" viewBox="0 0 27 27" version="1.1" xmlns="http://www.w3.org/2000/svg" xmlns:xlink="http://www.w3.org/1999/xlink">
    <!-- Generator: Sketch 63.1 (92452) - https://sketch.com -->
    <title>画板备份</title>
    <desc>Created with Sketch.</desc>
    <g id="画板备份" stroke="none" stroke-width="1" fill="none" fill-rule="evenodd">
        <g id="qrcode" fill="#FFFFFF">
            <path d="M26.992,11.936 C26.854,11.943 26.735,11.957 26.616,11.957 C22.892,11.957 19.194,11.957 15.471,11.965 C15.107,11.965 14.984,11.884 14.9869466,11.496 C15.001,7.945 14.995,3.966 14.995,0.414 L14.995,0.009 L26.995,0.009 L26.995,11.936 L26.992,11.936 Z M18.98,3.986 C18.98,5.221 18.972,6.593 18.994,7.773 C19.0585462,7.89661327 19.1796271,7.98069725 19.318,7.998 C20.094,8.017 20.701,8.007 21.478,8.007 L23.025,8.007 L23.025,3.986 L18.98,3.986 Z M13.011,0 L13.011,12.007 L1.043,12.007 L1.043,0 L13.011,0 Z M10.011,3.019 C9.858,3.009 9.75,3 9.643,3 C7.83,3 6.234,3.007 4.422,2.992 C4.29855253,2.95634154 4.16547561,2.99037612 4.07430539,3.08092331 C3.98313517,3.1714705 3.94818887,3.30431092 3.983,3.428 C4.001,5.073 3.992,6.963 3.994,8.608 C3.994,8.725 4.011,8.844 4.022,8.978 L10.01,8.978 L10.01,3.018 L10.011,3.019 Z M27,14 L27,25.96 L14.988,25.96 C14.98,25.808 14.97,25.689 14.97,25.569 C14.97,22.017 15.001,18.028 14.987,14.476 C14.987,14.076 15.078,13.985 15.466,13.985 C19.174,14 22.885,14 26.594,14 L27,14 Z M17.914,16.931 L17.914,23.062 C17.9605885,23.0790696 18.0088598,23.0911374 18.058,23.098 C19.979,23.098 21.783,23.098 23.704,23.107 C24.046,23.107 24.028,22.907 24.028,22.684 C24.028,21.038 24.028,19.393 24.028,17.749 C24.028,17.63 24.01,17.074 23.997,16.931 L17.912,16.931 L17.914,16.931 Z M7.014,20.222 L7.014,25.968 C6.856,25.979 6.725,25.994 6.592,25.994 C4.792,25.994 3.236,25.987 1.437,26.003 C1.31267674,26.0406714 1.17771324,26.0065974 1.08617101,25.9144267 C0.994628783,25.8222561 0.961478897,25.6870626 1,25.563 C1.017,23.917 1.008,22.271 1.009,20.625 C1.009,20.506 1.026,20.143 1.038,19.984 C3.129,19.984 4.965,19.976 7.038,19.976 L7.014,20.222 Z M2.924,21.943 C2.924,22.543 2.916,23.294 2.934,23.843 C2.96173647,23.9463731 3.041308,24.0278392 3.144,24.058 C3.796,24.076 4.399,24.077 5.051,24.058 C5.135,24.058 5.04,23.91 5.043,23.825 C5.06001623,23.5270547 5.05533722,23.2282663 5.029,22.931 C5.03533594,22.6176793 5.00173213,22.3048278 4.929,22 C4.21,21.979 3.687,21.938 2.921,21.938 L2.924,21.943 Z M7.024,19.961 C7.024,18.152 7.074,16.177 7.062,14.368 C7.03028397,14.2628709 7.05853938,14.1488139 7.1356633,14.0706478 C7.21278722,13.9924817 7.32645463,13.9626979 7.432,13.993 C9.121,14.006 10.942,14.005 12.632,13.993 C12.7367224,13.9627033 12.8496379,13.9916008 12.9269319,14.0684792 C13.004226,14.1453577 13.0337317,14.2581158 13.004,14.363 C12.991,16.05 12.991,17.94 13.004,19.627 C13.034024,19.7326292 13.0039362,19.8462218 12.9255603,19.9231386 C12.8471843,20.0000554 12.7330464,20.0280035 12.628,19.996 C10.816,19.971 8.842,19.951 7.028,20.03 C7.02119068,20.2220382 6.86514065,20.3750849 6.6730064,20.3782085 C6.48087216,20.3812379 6.32000214,20.2332658 6.30704796,20.0415441 C6.29409379,19.8498223 6.43359627,19.6815548 6.62439801,19.6587572 C6.81519976,19.6359597 6.99041941,19.7666233 7.023,19.956 L7.024,19.961 Z M8.994,18.013 L11.04,18.013 L11.04,16 L8.993,16 L8.993,18.013 L8.994,18.013 Z M5.983,14.026 L5.983,16 L3.021,16 L3.021,18.449 C3.021,19.015 3.021,19.015 2.446,19.015 L1.814,19.015 C1.008,19.015 1.008,19.015 1.008,18.195 C1.008,17.026 1.008,15.651 1.008,14.483 L1.008,14.021 L5.982,14.021 L5.983,14.026 Z M11.034,21.026 L13.018,21.026 L13.018,25.968 L7.99,25.968 C7.99,25.396 7.976,24.803 8.005,24.262 C8.06941294,24.1382694 8.19056365,24.0541369 8.329,24.037 C9.029,24.016 9.881,24.009 10.577,24.037 C10.926,24.05 11.056,23.963 11.041,23.588 C11.01,22.789 11.032,21.857 11.032,21.016 L11.034,21.026 Z M4.02,17.048 L5.971,17.048 L5.971,19.013 C5.232,19.013 4.927,19.018 4.198,19.003 C4.10737618,18.9644804 4.04282742,18.8821902 4.027,18.785 C4.012,18.246 4.02,17.628 4.02,17.048 Z" id="形状_2"></path>
        </g>
    </g>
</svg>