<svg xmlns="http://www.w3.org/2000/svg" width="26" height="26" viewBox="0 0 26 26">
  <metadata><?xpacket begin="﻿" id="W5M0MpCehiHzreSzNTczkc9d"?>
<x:xmpmeta xmlns:x="adobe:ns:meta/" x:xmptk="Adobe XMP Core 5.6-c140 79.160451, 2017/05/06-01:08:21        ">
   <rdf:RDF xmlns:rdf="http://www.w3.org/1999/02/22-rdf-syntax-ns#">
      <rdf:Description rdf:about=""/>
   </rdf:RDF>
</x:xmpmeta>
                                                                                                    
                                                                                                    
                                                                                                    
                                                                                                    
                                                                                                    
                                                                                                    
                                                                                                    
                                                                                                    
                                                                                                    
                                                                                                    
                                                                                                    
                                                                                                    
                                                                                                    
                                                                                                    
                                                                                                    
                                                                                                    
                                                                                                    
                                                                                                    
                                                                                                    
                                                                                                    
                           
<?xpacket end="w"?></metadata>
<defs>
    <style>
      .cls-1 {
        fill: #444553;
        fill-rule: evenodd;
      }
    </style>
  </defs>
  <path id="形状_2" data-name="形状 2" class="cls-1" d="M52.992,38.936c-0.138.007-.257,0.021-0.376,0.021-3.724,0-7.422,0-11.145.008-0.364,0-.487-0.081-0.484-0.469,0.014-3.551.008-7.53,0.008-11.082V27.009h12V38.936Zm-8.012-7.95c0,1.235-.008,2.607.014,3.787a0.425,0.425,0,0,0,.324.225c0.776,0.019,1.383.009,2.16,0.009h1.547V30.986H44.98ZM39.011,27V39.007H27.043V27H39.011Zm-3,3.019C35.858,30.009,35.75,30,35.643,30c-1.813,0-3.409.007-5.221-.008a0.354,0.354,0,0,0-.439.436c0.018,1.645.009,3.535,0.011,5.18,0,0.117.017,0.236,0.028,0.37H36.01V30.018ZM53,41V52.96H40.988c-0.008-.152-0.018-0.271-0.018-0.391,0-3.552.031-7.541,0.017-11.093,0-.4.091-0.491,0.479-0.491C45.174,41,48.885,41,52.594,41H53Zm-9.086,2.931v6.131a0.7,0.7,0,0,0,.144.036c1.921,0,3.725,0,5.646.009,0.342,0,.324-0.2.324-0.423,0-1.646,0-3.291,0-4.935,0-.119-0.018-0.675-0.031-0.818H43.912Zm-10.9,3.291v5.746c-0.158.011-.289,0.026-0.422,0.026-1.8,0-3.356-.007-5.155.009A0.351,0.351,0,0,1,27,52.563c0.017-1.646.008-3.292,0.009-4.938,0-.119.017-0.482,0.029-0.641,2.091,0,3.927-.008,6-0.008Zm-4.09,1.721c0,0.6-.008,1.351.01,1.9a0.307,0.307,0,0,0,.21.215c0.652,0.018,1.255.019,1.907,0,0.084,0-.011-0.148-0.008-0.233a6.154,6.154,0,0,0-.014-0.894,3.69,3.69,0,0,0-.1-0.931C30.21,48.979,29.687,48.938,28.921,48.938Zm4.1-1.982c0-1.809.05-3.784,0.038-5.593a0.3,0.3,0,0,1,.37-0.375c1.689,0.013,3.51.012,5.2,0a0.3,0.3,0,0,1,.372.37c-0.013,1.687-.013,3.577,0,5.264a0.3,0.3,0,0,1-.376.369c-1.812-.025-3.786-0.045-5.6.034A0.361,0.361,0,1,1,33.023,46.956Zm1.97-1.948H37.04V43H34.993v2.013Zm-3.011-3.987V43H29.021v2.449c0,0.566,0,.566-0.575.566H27.814c-0.806,0-.806,0-0.806-0.82,0-1.169,0-2.544,0-3.712V41.021h4.974Zm5.051,7h1.984v4.942H33.99c0-.572-0.014-1.165.015-1.706a0.424,0.424,0,0,1,.324-0.225c0.7-.021,1.552-0.028,2.248,0,0.349,0.013.479-.074,0.464-0.449C37.01,49.789,37.032,48.857,37.032,48.016ZM30.02,44.048h1.951v1.965c-0.739,0-1.044.005-1.773-.01a0.287,0.287,0,0,1-.171-0.218C30.012,45.246,30.02,44.628,30.02,44.048Z" transform="translate(-27 -27)"/>
</svg>
