<svg width="293" height="53" viewBox="0 0 293 53" fill="none" xmlns="http://www.w3.org/2000/svg">
<g clip-path="url(#clip0)">
<path fill-rule="evenodd" clip-rule="evenodd" d="M0 2.79L11.3 0.08H11.31C11.5365 0.0287604 11.7678 0.00194058 12 0C12.5192 0.00560364 13.028 0.145849 13.4767 0.40702C13.9254 0.668192 14.2987 1.04135 14.56 1.49L25.12 19.87C26.2477 21.8253 26.8414 24.0428 26.8414 26.3C26.8414 28.5572 26.2477 30.7747 25.12 32.73L14.53 51.11C14.2061 51.6597 13.7154 52.0918 13.1291 52.3436C12.5429 52.5953 11.8916 52.6536 11.27 52.51L0 49.81L5.71 28.31C6.06523 27.0003 6.06523 25.6197 5.71 24.31L0 2.79Z" fill="white"/>
<path fill-rule="evenodd" clip-rule="evenodd" d="M46.7 0C46.1791 0.0038763 45.6682 0.143303 45.2176 0.40456C44.767 0.665818 44.3922 1.0399 44.13 1.49L33.54 19.87C32.4152 21.8263 31.8232 24.0434 31.8232 26.3C31.8232 28.5566 32.4152 30.7737 33.54 32.73L44.11 51.11C44.4324 51.6615 44.9225 52.0957 45.5089 52.3493C46.0953 52.6029 46.7473 52.6627 47.37 52.52L58.67 49.81L53 28.28C52.6546 26.969 52.6546 25.591 53 24.28L58.67 2.79L47.4 0.08C47.17 0.0293058 46.9355 0.00249688 46.7 0Z" fill="white"/>
</g>
<defs>
<clipPath id="clip0">
<rect width="292.08" height="52.82" fill="white"/>
</clipPath>
</defs>
</svg>
